<svg width="95" height="71" viewBox="0 0 95 71" fill="none" xmlns="http://www.w3.org/2000/svg">
<g clip-path="url(#clip0_23_6)">
<line x1="78.1511" y1="68.8021" x2="93.8489" y2="68.8021" stroke="#5811C6"/>
<path d="M51 10.572L46.0851 16.4699C46.0301 16.5359 46 16.619 46 16.7049C46 16.9076 46.1644 17.072 46.3671 17.072H46.3991H72.5L51.6698 44.3497C51.5597 44.4939 51.5 44.6703 51.5 44.8517V44.8906C51.5 45.0095 51.5311 45.1263 51.5902 45.2294C51.7116 45.4413 51.9372 45.572 52.1814 45.572H79.5L80.5 45.072L81.2097 44.7171C81.402 44.621 81.5775 44.4945 81.7295 44.3425L82 44.072L85.7791 39.3481C85.9049 39.1909 85.8923 38.9643 85.75 38.822C85.5899 38.6619 85.3728 38.572 85.1464 38.572H66L84.2113 14.4543C84.3768 14.2351 84.3555 13.9275 84.1613 13.7332C84.058 13.63 83.918 13.572 83.772 13.572H80V10.9255C80 10.6992 79.9101 10.4821 79.75 10.322C79.5899 10.1619 79.3728 10.072 79.1464 10.072H52.5L51 10.572Z" fill="#5711C5"/>
<path d="M3 11.072L23.4047 44.4163C23.4663 44.5169 23.5613 44.5924 23.6731 44.6297L24.8419 45.0193C24.9445 45.0535 25.0555 45.0535 25.1581 45.0193L26.5 44.572L34.8594 32.2787C34.9474 32.1494 35.0936 32.072 35.25 32.072C35.4058 32.072 35.5508 32.1514 35.6348 32.2826L43.3514 44.3399C43.4487 44.4918 43.5852 44.6146 43.7465 44.6952L44.1295 44.8867C44.3667 45.0054 44.6413 45.0249 44.893 44.941L45.6826 44.6778C45.8886 44.6091 46.0666 44.4753 46.1898 44.2964L61.4951 22.079C61.4984 22.0744 61.502 22.07 61.5061 22.0659L61.6883 21.8837C61.8879 21.6841 62 21.4134 62 21.1311C62 21.0985 61.9735 21.072 61.9409 21.072H53.2361C53.0808 21.072 52.9277 21.1081 52.7889 21.1776L52.2197 21.4622C52.0754 21.5343 51.9507 21.6403 51.8562 21.7711L46.4061 29.3174C45.9811 29.9058 45.0904 29.8596 44.7285 29.2303L34.1502 10.8332C34.0522 10.6628 33.9063 10.5251 33.7305 10.4372L33.5 10.322L33.4223 10.2831C33.1446 10.1443 32.8384 10.072 32.5279 10.072H23.9148C23.7052 10.072 23.5302 10.232 23.5117 10.4408C23.5041 10.5261 23.5237 10.6115 23.5677 10.6849L30.6581 22.5021C30.8652 22.8474 30.8451 23.2832 30.607 23.6079L26.3971 29.3486C25.9725 29.9277 25.0941 29.8838 24.7294 29.2653L14.0645 11.1813C14.0217 11.1087 13.9698 11.0418 13.9102 10.9822L13.2929 10.3649C13.1054 10.1773 12.851 10.072 12.5858 10.072H3.07793C2.81241 10.072 2.63971 10.3514 2.75846 10.5889L3 11.072Z" fill="black" stroke="black"/>
<rect x="87" y="8.00618" width="4" height="4" rx="0.5" fill="#5711C5"/>
<rect x="89.1797" width="4" height="4" rx="0.5" fill="#5711C5"/>
<rect x="81.8239" y="3.00618" width="4" height="4" rx="0.5" fill="#5711C5"/>
<path d="M3.003 61.638L0.468 52.408H3.094L4.472 58.102L5.889 52.408H7.917L9.334 58.102L10.699 52.408H13.325L10.803 61.638H8.203L6.903 56.568L5.603 61.638H3.003ZM16.9257 61.794C16.1717 61.794 15.513 61.6423 14.9497 61.339C14.3864 61.0357 13.9487 60.611 13.6367 60.065C13.3247 59.5103 13.1687 58.8647 13.1687 58.128C13.1687 57.3913 13.3247 56.75 13.6367 56.204C13.9487 55.658 14.3864 55.2333 14.9497 54.93C15.513 54.618 16.1717 54.462 16.9257 54.462C17.6797 54.462 18.3297 54.6223 18.8757 54.943C19.4304 55.255 19.855 55.7013 20.1497 56.282C20.4444 56.8627 20.5917 57.5473 20.5917 58.336V58.778H15.7687C15.786 59.2027 15.903 59.519 16.1197 59.727C16.345 59.9263 16.631 60.026 16.9777 60.026C17.229 60.026 17.4414 59.9783 17.6147 59.883C17.7967 59.7877 17.9267 59.6187 18.0047 59.376L20.5007 59.506C20.31 60.26 19.894 60.832 19.2527 61.222C18.6114 61.6033 17.8357 61.794 16.9257 61.794ZM15.7687 57.426H18.0697C18.061 57.0187 17.9527 56.711 17.7447 56.503C17.5367 56.2863 17.2637 56.178 16.9257 56.178C16.605 56.178 16.3364 56.2907 16.1197 56.516C15.9117 56.7413 15.7947 57.0447 15.7687 57.426ZM25.9217 61.794C25.4277 61.794 25.0074 61.6943 24.6607 61.495C24.314 61.287 24.041 60.9967 23.8417 60.624L23.8027 61.638H21.3457V52.408H23.8677V55.632C24.067 55.2767 24.34 54.995 24.6867 54.787C25.0334 54.5703 25.445 54.462 25.9217 54.462C26.5024 54.462 27.005 54.6137 27.4297 54.917C27.863 55.2203 28.1967 55.6493 28.4307 56.204C28.6647 56.75 28.7817 57.3913 28.7817 58.128C28.7817 58.8647 28.6647 59.5103 28.4307 60.065C28.1967 60.611 27.863 61.0357 27.4297 61.339C27.005 61.6423 26.5024 61.794 25.9217 61.794ZM25.0637 59.987C25.393 59.987 25.6617 59.8267 25.8697 59.506C26.0864 59.1853 26.1947 58.726 26.1947 58.128C26.1947 57.53 26.0907 57.0707 25.8827 56.75C25.6834 56.4293 25.4104 56.269 25.0637 56.269C24.8124 56.269 24.5957 56.3427 24.4137 56.49C24.2317 56.6287 24.093 56.8367 23.9977 57.114C23.911 57.3913 23.8677 57.7293 23.8677 58.128C23.8677 58.518 23.911 58.8517 23.9977 59.129C24.093 59.4063 24.2317 59.6187 24.4137 59.766C24.5957 59.9133 24.8124 59.987 25.0637 59.987ZM44.0824 61.846C43.2591 61.846 42.5354 61.6553 41.9114 61.274C41.2874 60.884 40.8021 60.3293 40.4554 59.61C40.1087 58.8907 39.9354 58.0327 39.9354 57.036C39.9354 56.0393 40.1087 55.1813 40.4554 54.462C40.8021 53.734 41.2874 53.175 41.9114 52.785C42.5354 52.395 43.2591 52.2 44.0824 52.2C45.2004 52.2 46.0671 52.4817 46.6824 53.045C47.2977 53.6083 47.7007 54.3753 47.8914 55.346L46.7084 55.424C46.5784 54.7653 46.3011 54.2453 45.8764 53.864C45.4517 53.4827 44.8537 53.292 44.0824 53.292C43.4931 53.292 42.9731 53.4437 42.5224 53.747C42.0804 54.0417 41.7337 54.4707 41.4824 55.034C41.2311 55.5887 41.1054 56.256 41.1054 57.036C41.1054 57.816 41.2311 58.4833 41.4824 59.038C41.7337 59.5927 42.0804 60.0173 42.5224 60.312C42.9731 60.6067 43.4931 60.754 44.0824 60.754C44.8884 60.754 45.5124 60.546 45.9544 60.13C46.3964 59.7053 46.6737 59.1333 46.7864 58.414L47.9694 58.492C47.8567 59.1593 47.6357 59.7443 47.3064 60.247C46.9771 60.7497 46.5394 61.144 45.9934 61.43C45.4561 61.7073 44.8191 61.846 44.0824 61.846ZM49.1695 61.638V54.748H50.1315L50.1835 56.49L50.0795 56.451C50.1661 55.8617 50.3525 55.4327 50.6385 55.164C50.9331 54.8867 51.3231 54.748 51.8085 54.748H52.4845V55.788H51.8215C51.4748 55.788 51.1845 55.853 50.9505 55.983C50.7251 56.1043 50.5518 56.2907 50.4305 56.542C50.3178 56.7847 50.2615 57.0967 50.2615 57.478V61.638H49.1695ZM56.0057 61.794C55.3557 61.794 54.7924 61.6467 54.3157 61.352C53.8477 61.0573 53.4837 60.6413 53.2237 60.104C52.9724 59.558 52.8467 58.921 52.8467 58.193C52.8467 57.465 52.9724 56.8323 53.2237 56.295C53.4837 55.7577 53.8434 55.3417 54.3027 55.047C54.7707 54.7437 55.3211 54.592 55.9537 54.592C56.5517 54.592 57.0804 54.735 57.5397 55.021C57.9991 55.2983 58.3544 55.7057 58.6057 56.243C58.8657 56.7803 58.9957 57.4347 58.9957 58.206V58.531H53.9907C54.0341 59.2677 54.2291 59.8223 54.5757 60.195C54.9311 60.5677 55.4077 60.754 56.0057 60.754C56.4564 60.754 56.8247 60.65 57.1107 60.442C57.4054 60.2253 57.6091 59.9437 57.7217 59.597L58.8917 59.688C58.7097 60.3033 58.3631 60.8103 57.8517 61.209C57.3491 61.599 56.7337 61.794 56.0057 61.794ZM53.9907 57.569H57.7997C57.7477 56.9017 57.5527 56.412 57.2147 56.1C56.8854 55.788 56.4651 55.632 55.9537 55.632C55.4251 55.632 54.9874 55.7967 54.6407 56.126C54.3027 56.4467 54.0861 56.9277 53.9907 57.569ZM62.2516 61.794C61.5409 61.794 60.9733 61.6293 60.5486 61.3C60.1326 60.9707 59.9246 60.5113 59.9246 59.922C59.9246 59.3327 60.0979 58.869 60.4446 58.531C60.7913 58.193 61.3416 57.9547 62.0956 57.816L64.5396 57.361C64.5396 56.7803 64.4009 56.347 64.1236 56.061C63.8549 55.775 63.4476 55.632 62.9016 55.632C62.4249 55.632 62.0479 55.7403 61.7706 55.957C61.4933 56.165 61.3026 56.4683 61.1986 56.867L60.0416 56.776C60.1716 56.126 60.4836 55.6017 60.9776 55.203C61.4803 54.7957 62.1216 54.592 62.9016 54.592C63.7856 54.592 64.4616 54.8433 64.9296 55.346C65.3976 55.84 65.6316 56.5247 65.6316 57.4V60.247C65.6316 60.403 65.6576 60.5157 65.7096 60.585C65.7703 60.6457 65.8656 60.676 65.9956 60.676H66.2686V61.638C66.2339 61.6467 66.1776 61.651 66.0996 61.651C66.0216 61.6597 65.9393 61.664 65.8526 61.664C65.5406 61.664 65.2849 61.6163 65.0856 61.521C64.8949 61.417 64.7563 61.261 64.6696 61.053C64.5829 60.8363 64.5396 60.5547 64.5396 60.208L64.6696 60.234C64.6089 60.5287 64.4616 60.7973 64.2276 61.04C63.9936 61.274 63.7033 61.4603 63.3566 61.599C63.0099 61.729 62.6416 61.794 62.2516 61.794ZM62.3556 60.832C62.8149 60.832 63.2049 60.7453 63.5256 60.572C63.8549 60.39 64.1063 60.1473 64.2796 59.844C64.4529 59.532 64.5396 59.1853 64.5396 58.804V58.31L62.3036 58.726C61.8356 58.8127 61.5106 58.947 61.3286 59.129C61.1553 59.3023 61.0686 59.532 61.0686 59.818C61.0686 60.1387 61.1813 60.39 61.4066 60.572C61.6406 60.7453 61.9569 60.832 62.3556 60.832ZM69.4212 61.638C68.7972 61.638 68.3336 61.495 68.0302 61.209C67.7356 60.923 67.5882 60.4767 67.5882 59.87V53.136H68.6802V59.844C68.6802 60.156 68.7496 60.3727 68.8882 60.494C69.0269 60.6153 69.2392 60.676 69.5252 60.676H70.5132V61.638H69.4212ZM66.5742 55.71V54.748H70.5132V55.71H66.5742ZM71.6539 61.638V54.748H72.7459V61.638H71.6539ZM71.6279 53.669V52.395H72.7719V53.669H71.6279ZM77.1317 61.794C76.4991 61.794 75.9444 61.6467 75.4677 61.352C74.9911 61.0573 74.6227 60.6413 74.3627 60.104C74.1027 59.558 73.9727 58.921 73.9727 58.193C73.9727 57.4563 74.1027 56.8193 74.3627 56.282C74.6227 55.7447 74.9911 55.3287 75.4677 55.034C75.9444 54.7393 76.4991 54.592 77.1317 54.592C77.7644 54.592 78.3147 54.7393 78.7827 55.034C79.2594 55.3287 79.6277 55.7447 79.8877 56.282C80.1477 56.8193 80.2777 57.4563 80.2777 58.193C80.2777 58.921 80.1477 59.558 79.8877 60.104C79.6277 60.6413 79.2594 61.0573 78.7827 61.352C78.3147 61.6467 77.7644 61.794 77.1317 61.794ZM77.1317 60.754C77.7644 60.754 78.2541 60.5287 78.6007 60.078C78.9561 59.6187 79.1337 58.9903 79.1337 58.193C79.1337 57.3957 78.9561 56.7717 78.6007 56.321C78.2541 55.8617 77.7644 55.632 77.1317 55.632C76.4991 55.632 76.0051 55.8617 75.6497 56.321C75.2944 56.7717 75.1167 57.3957 75.1167 58.193C75.1167 58.9903 75.2944 59.6187 75.6497 60.078C76.0051 60.5287 76.4991 60.754 77.1317 60.754ZM81.5059 61.638V54.748H82.5069L82.5459 56.503L82.4159 56.386C82.5026 55.9787 82.6543 55.645 82.8709 55.385C83.0876 55.1163 83.3476 54.917 83.6509 54.787C83.9629 54.657 84.2966 54.592 84.6519 54.592C85.1806 54.592 85.6139 54.709 85.9519 54.943C86.2986 55.177 86.5543 55.4933 86.7189 55.892C86.8923 56.282 86.9789 56.7197 86.9789 57.205V61.638H85.8869V57.517C85.8869 57.0923 85.8349 56.737 85.7309 56.451C85.6356 56.1563 85.4796 55.9353 85.2629 55.788C85.0463 55.632 84.7646 55.554 84.4179 55.554C83.8893 55.554 83.4516 55.723 83.1049 56.061C82.7669 56.3903 82.5979 56.8757 82.5979 57.517V61.638H81.5059ZM91.1563 61.794C90.541 61.794 90.0166 61.6943 89.5833 61.495C89.1586 61.2957 88.825 61.0227 88.5823 60.676C88.3483 60.3207 88.214 59.9177 88.1793 59.467L89.3233 59.389C89.3926 59.805 89.5703 60.1387 89.8563 60.39C90.1423 60.6327 90.5756 60.754 91.1563 60.754C91.6243 60.754 91.997 60.6803 92.2743 60.533C92.5603 60.377 92.7033 60.13 92.7033 59.792C92.7033 59.61 92.66 59.4583 92.5733 59.337C92.4866 59.2157 92.3176 59.1117 92.0663 59.025C91.815 58.9297 91.4423 58.8387 90.9483 58.752C90.2896 58.6307 89.7696 58.4833 89.3883 58.31C89.0156 58.128 88.747 57.907 88.5823 57.647C88.4263 57.3783 88.3483 57.062 88.3483 56.698C88.3483 56.0827 88.5736 55.58 89.0243 55.19C89.475 54.7913 90.1163 54.592 90.9483 54.592C91.5116 54.592 91.984 54.696 92.3653 54.904C92.7553 55.1033 93.0586 55.372 93.2753 55.71C93.5006 56.0393 93.648 56.4033 93.7173 56.802L92.5733 56.88C92.5213 56.6373 92.426 56.425 92.2873 56.243C92.1486 56.0523 91.9666 55.905 91.7413 55.801C91.516 55.6883 91.2473 55.632 90.9353 55.632C90.4413 55.632 90.0773 55.7273 89.8433 55.918C89.6093 56.1087 89.4923 56.3513 89.4923 56.646C89.4923 56.8713 89.5443 57.0577 89.6483 57.205C89.761 57.3437 89.9386 57.4607 90.1813 57.556C90.424 57.6427 90.749 57.7207 91.1563 57.79C91.8583 57.9113 92.4043 58.0587 92.7943 58.232C93.1843 58.4053 93.4573 58.6177 93.6133 58.869C93.7693 59.1203 93.8473 59.428 93.8473 59.792C93.8473 60.2167 93.726 60.5807 93.4833 60.884C93.2493 61.1787 92.9286 61.404 92.5213 61.56C92.1226 61.716 91.6676 61.794 91.1563 61.794Z" fill="black"/>
<path d="M29.2777 61.638V59.714L33.3207 54.449H29.5117V52.408H36.5577V54.332L32.3847 59.597H36.7527V61.638H29.2777Z" fill="#5711C5"/>
<line x1="2.49945" y1="68.8021" x2="18.1973" y2="68.8021" stroke="#5811C6"/>
<path d="M22.5182 69.638V66.798H23.4302C23.8755 66.798 24.2182 66.922 24.4582 67.17C24.6982 67.4153 24.8182 67.766 24.8182 68.222C24.8182 68.6753 24.6995 69.0247 24.4622 69.27C24.2275 69.5153 23.8915 69.638 23.4542 69.638H22.5182ZM22.9502 69.242H23.4302C23.7449 69.242 23.9795 69.158 24.1342 68.99C24.2915 68.8193 24.3702 68.5633 24.3702 68.222C24.3702 67.8753 24.2915 67.618 24.1342 67.45C23.9795 67.2793 23.7449 67.194 23.4302 67.194H22.9502V69.242ZM25.2145 69.638V67.51H25.6025L25.6185 68.074L25.5825 68.062C25.6118 67.87 25.6705 67.73 25.7585 67.642C25.8492 67.554 25.9705 67.51 26.1225 67.51H26.3265V67.89H26.1225C26.0158 67.89 25.9265 67.9073 25.8545 67.942C25.7825 67.9767 25.7278 68.03 25.6905 68.102C25.6558 68.174 25.6385 68.2673 25.6385 68.382V69.638H25.2145ZM26.5954 69.638V67.51H27.0194V69.638H26.5954ZM26.5874 67.202V66.778H27.0274V67.202H26.5874ZM28.0638 69.638L27.2878 67.51H27.7398L28.3198 69.206L28.8998 67.51H29.3558L28.5758 69.638H28.0638ZM29.619 69.638V67.51H30.043V69.638H29.619ZM29.611 67.202V66.778H30.051V67.202H29.611ZM30.5976 69.638V67.51H30.9856L31.0016 68.078L30.9496 68.05C30.9736 67.9113 31.019 67.7993 31.0856 67.714C31.1523 67.6287 31.2336 67.566 31.3296 67.526C31.4256 67.4833 31.5296 67.462 31.6416 67.462C31.8016 67.462 31.9336 67.498 32.0376 67.57C32.1443 67.6393 32.2243 67.7353 32.2776 67.858C32.3336 67.978 32.3616 68.1153 32.3616 68.27V69.638H31.9376V68.398C31.9376 68.2727 31.9243 68.1673 31.8976 68.082C31.871 67.9967 31.827 67.9313 31.7656 67.886C31.7043 67.8407 31.6243 67.818 31.5256 67.818C31.3763 67.818 31.255 67.8673 31.1616 67.966C31.0683 68.0647 31.0216 68.2087 31.0216 68.398V69.638H30.5976ZM33.69 70.286C33.522 70.286 33.374 70.2607 33.246 70.21C33.118 70.1593 33.0127 70.0873 32.93 69.994C32.8474 69.9033 32.7914 69.7967 32.762 69.674L33.202 69.646C33.2314 69.734 33.282 69.8033 33.354 69.854C33.4287 69.9073 33.5407 69.934 33.69 69.934C33.866 69.934 34.0007 69.8967 34.094 69.822C34.19 69.7473 34.238 69.634 34.238 69.482V69.174C34.1874 69.2833 34.106 69.37 33.994 69.434C33.882 69.498 33.7567 69.53 33.618 69.53C33.4394 69.53 33.2807 69.486 33.142 69.398C33.0034 69.31 32.8954 69.1887 32.818 69.034C32.7407 68.8793 32.702 68.7007 32.702 68.498C32.702 68.2927 32.7394 68.1127 32.814 67.958C32.8914 67.8033 32.998 67.682 33.134 67.594C33.2727 67.506 33.4287 67.462 33.602 67.462C33.754 67.462 33.8874 67.4967 34.002 67.566C34.1194 67.6353 34.2034 67.7287 34.254 67.846V67.51H34.662V69.47C34.662 69.646 34.622 69.794 34.542 69.914C34.4647 70.0367 34.3527 70.1287 34.206 70.19C34.062 70.254 33.89 70.286 33.69 70.286ZM33.686 69.17C33.8514 69.17 33.9834 69.11 34.082 68.99C34.1834 68.87 34.2354 68.7047 34.238 68.494C34.2407 68.3553 34.2194 68.2367 34.174 68.138C34.1287 68.0367 34.0634 67.9593 33.978 67.906C33.8954 67.85 33.798 67.822 33.686 67.822C33.5127 67.822 33.378 67.8833 33.282 68.006C33.1887 68.126 33.142 68.2887 33.142 68.494C33.142 68.702 33.19 68.8673 33.286 68.99C33.3847 69.11 33.518 69.17 33.686 69.17ZM36.1204 69.638V66.798H37.0324C37.4777 66.798 37.8204 66.922 38.0604 67.17C38.3004 67.4153 38.4204 67.766 38.4204 68.222C38.4204 68.6753 38.3017 69.0247 38.0644 69.27C37.8297 69.5153 37.4937 69.638 37.0564 69.638H36.1204ZM36.5524 69.242H37.0324C37.347 69.242 37.5817 69.158 37.7364 68.99C37.8937 68.8193 37.9724 68.5633 37.9724 68.222C37.9724 67.8753 37.8937 67.618 37.7364 67.45C37.5817 67.2793 37.347 67.194 37.0324 67.194H36.5524V69.242ZM38.7581 69.638V67.51H39.1821V69.638H38.7581ZM38.7501 67.202V66.778H39.1901V67.202H38.7501ZM40.5185 70.286C40.3505 70.286 40.2025 70.2607 40.0745 70.21C39.9465 70.1593 39.8411 70.0873 39.7585 69.994C39.6758 69.9033 39.6198 69.7967 39.5905 69.674L40.0305 69.646C40.0598 69.734 40.1105 69.8033 40.1825 69.854C40.2571 69.9073 40.3691 69.934 40.5185 69.934C40.6945 69.934 40.8291 69.8967 40.9225 69.822C41.0185 69.7473 41.0665 69.634 41.0665 69.482V69.174C41.0158 69.2833 40.9345 69.37 40.8225 69.434C40.7105 69.498 40.5851 69.53 40.4465 69.53C40.2678 69.53 40.1091 69.486 39.9705 69.398C39.8318 69.31 39.7238 69.1887 39.6465 69.034C39.5691 68.8793 39.5305 68.7007 39.5305 68.498C39.5305 68.2927 39.5678 68.1127 39.6425 67.958C39.7198 67.8033 39.8265 67.682 39.9625 67.594C40.1011 67.506 40.2571 67.462 40.4305 67.462C40.5825 67.462 40.7158 67.4967 40.8305 67.566C40.9478 67.6353 41.0318 67.7287 41.0825 67.846V67.51H41.4905V69.47C41.4905 69.646 41.4505 69.794 41.3705 69.914C41.2931 70.0367 41.1811 70.1287 41.0345 70.19C40.8905 70.254 40.7185 70.286 40.5185 70.286ZM40.5145 69.17C40.6798 69.17 40.8118 69.11 40.9105 68.99C41.0118 68.87 41.0638 68.7047 41.0665 68.494C41.0691 68.3553 41.0478 68.2367 41.0025 68.138C40.9571 68.0367 40.8918 67.9593 40.8065 67.906C40.7238 67.85 40.6265 67.822 40.5145 67.822C40.3411 67.822 40.2065 67.8833 40.1105 68.006C40.0171 68.126 39.9705 68.2887 39.9705 68.494C39.9705 68.702 40.0185 68.8673 40.1145 68.99C40.2131 69.11 40.3465 69.17 40.5145 69.17ZM41.9614 69.638V67.51H42.3854V69.638H41.9614ZM41.9534 67.202V66.778H42.3934V67.202H41.9534ZM43.5763 69.638C43.3736 69.638 43.2243 69.5913 43.1283 69.498C43.0323 69.4047 42.9843 69.2593 42.9843 69.062V67.01H43.4083V69.03C43.4083 69.1287 43.4296 69.1967 43.4723 69.234C43.515 69.2713 43.5803 69.29 43.6683 69.29H43.9723V69.638H43.5763ZM42.6603 67.858V67.51H43.9723V67.858H42.6603ZM44.8818 69.686C44.6604 69.686 44.4831 69.6353 44.3498 69.534C44.2191 69.4327 44.1538 69.29 44.1538 69.106C44.1538 68.922 44.2084 68.7793 44.3178 68.678C44.4298 68.574 44.6018 68.4993 44.8338 68.454L45.5658 68.314C45.5658 68.1487 45.5271 68.026 45.4498 67.946C45.3724 67.8633 45.2578 67.822 45.1058 67.822C44.9698 67.822 44.8631 67.8527 44.7858 67.914C44.7084 67.9727 44.6551 68.0607 44.6258 68.178L44.1898 68.15C44.2298 67.9367 44.3284 67.7687 44.4858 67.646C44.6458 67.5233 44.8524 67.462 45.1058 67.462C45.3938 67.462 45.6124 67.5393 45.7618 67.694C45.9138 67.846 45.9898 68.0607 45.9898 68.338V69.166C45.9898 69.2167 45.9978 69.2527 46.0138 69.274C46.0324 69.2927 46.0618 69.302 46.1018 69.302H46.1778V69.638C46.1644 69.6407 46.1431 69.6433 46.1138 69.646C46.0844 69.6487 46.0538 69.65 46.0218 69.65C45.9311 69.65 45.8524 69.6353 45.7858 69.606C45.7218 69.5767 45.6738 69.5287 45.6418 69.462C45.6098 69.3927 45.5938 69.3007 45.5938 69.186L45.6378 69.206C45.6164 69.2993 45.5698 69.382 45.4978 69.454C45.4284 69.526 45.3391 69.5833 45.2298 69.626C45.1231 69.666 45.0071 69.686 44.8818 69.686ZM44.9498 69.35C45.0778 69.35 45.1871 69.326 45.2778 69.278C45.3684 69.2273 45.4391 69.158 45.4898 69.07C45.5404 68.982 45.5658 68.882 45.5658 68.77V68.634L44.9418 68.754C44.8138 68.778 44.7231 68.8167 44.6698 68.87C44.6191 68.9207 44.5938 68.986 44.5938 69.066C44.5938 69.1567 44.6244 69.2273 44.6858 69.278C44.7498 69.326 44.8378 69.35 44.9498 69.35ZM46.8924 69.638C46.7537 69.638 46.6417 69.602 46.5564 69.53C46.4711 69.458 46.4284 69.3433 46.4284 69.186V66.798H46.8524V69.146C46.8524 69.194 46.8644 69.23 46.8884 69.254C46.9151 69.278 46.9524 69.29 47.0004 69.29H47.1684V69.638H46.8924ZM48.99 69.638V67.194H48.118V66.798H50.294V67.194H49.422V69.638H48.99ZM50.372 69.638V67.51H50.76L50.776 68.074L50.74 68.062C50.7693 67.87 50.828 67.73 50.916 67.642C51.0067 67.554 51.128 67.51 51.28 67.51H51.484V67.89H51.28C51.1733 67.89 51.084 67.9073 51.012 67.942C50.94 67.9767 50.8853 68.03 50.848 68.102C50.8133 68.174 50.796 68.2673 50.796 68.382V69.638H50.372ZM52.3099 69.686C52.0885 69.686 51.9112 69.6353 51.7779 69.534C51.6472 69.4327 51.5819 69.29 51.5819 69.106C51.5819 68.922 51.6365 68.7793 51.7459 68.678C51.8579 68.574 52.0299 68.4993 52.2619 68.454L52.9939 68.314C52.9939 68.1487 52.9552 68.026 52.8779 67.946C52.8005 67.8633 52.6859 67.822 52.5339 67.822C52.3979 67.822 52.2912 67.8527 52.2139 67.914C52.1365 67.9727 52.0832 68.0607 52.0539 68.178L51.6179 68.15C51.6579 67.9367 51.7565 67.7687 51.9139 67.646C52.0739 67.5233 52.2805 67.462 52.5339 67.462C52.8219 67.462 53.0405 67.5393 53.1899 67.694C53.3419 67.846 53.4179 68.0607 53.4179 68.338V69.166C53.4179 69.2167 53.4259 69.2527 53.4419 69.274C53.4605 69.2927 53.4899 69.302 53.5299 69.302H53.6059V69.638C53.5925 69.6407 53.5712 69.6433 53.5419 69.646C53.5125 69.6487 53.4819 69.65 53.4499 69.65C53.3592 69.65 53.2805 69.6353 53.2139 69.606C53.1499 69.5767 53.1019 69.5287 53.0699 69.462C53.0379 69.3927 53.0219 69.3007 53.0219 69.186L53.0659 69.206C53.0445 69.2993 52.9979 69.382 52.9259 69.454C52.8565 69.526 52.7672 69.5833 52.6579 69.626C52.5512 69.666 52.4352 69.686 52.3099 69.686ZM52.3779 69.35C52.5059 69.35 52.6152 69.326 52.7059 69.278C52.7965 69.2273 52.8672 69.158 52.9179 69.07C52.9685 68.982 52.9939 68.882 52.9939 68.77V68.634L52.3699 68.754C52.2419 68.778 52.1512 68.8167 52.0979 68.87C52.0472 68.9207 52.0219 68.986 52.0219 69.066C52.0219 69.1567 52.0525 69.2273 52.1139 69.278C52.1779 69.326 52.2659 69.35 52.3779 69.35ZM53.8839 69.638V67.51H54.2719L54.2879 68.078L54.2359 68.05C54.2599 67.9113 54.3052 67.7993 54.3719 67.714C54.4385 67.6287 54.5199 67.566 54.6159 67.526C54.7119 67.4833 54.8159 67.462 54.9279 67.462C55.0879 67.462 55.2199 67.498 55.3239 67.57C55.4305 67.6393 55.5105 67.7353 55.5639 67.858C55.6199 67.978 55.6479 68.1153 55.6479 68.27V69.638H55.2239V68.398C55.2239 68.2727 55.2105 68.1673 55.1839 68.082C55.1572 67.9967 55.1132 67.9313 55.0519 67.886C54.9905 67.8407 54.9105 67.818 54.8119 67.818C54.6625 67.818 54.5412 67.8673 54.4479 67.966C54.3545 68.0647 54.3079 68.2087 54.3079 68.398V69.638H53.8839ZM56.9403 69.686C56.7403 69.686 56.571 69.6553 56.4323 69.594C56.2963 69.5327 56.191 69.4487 56.1163 69.342C56.0416 69.2327 55.999 69.1073 55.9883 68.966L56.4243 68.946C56.4456 69.0633 56.4963 69.1567 56.5763 69.226C56.6563 69.2953 56.7776 69.33 56.9403 69.33C57.0736 69.33 57.179 69.3087 57.2563 69.266C57.3336 69.2233 57.3723 69.1553 57.3723 69.062C57.3723 69.0113 57.359 68.9687 57.3323 68.934C57.3083 68.8967 57.2603 68.866 57.1883 68.842C57.1163 68.8153 57.0096 68.79 56.8683 68.766C56.6576 68.726 56.4923 68.6793 56.3723 68.626C56.2523 68.5727 56.167 68.5047 56.1163 68.422C56.0656 68.3393 56.0403 68.2393 56.0403 68.122C56.0403 67.9273 56.1123 67.7687 56.2563 67.646C56.403 67.5233 56.6136 67.462 56.8883 67.462C57.0723 67.462 57.227 67.494 57.3523 67.558C57.4776 67.6193 57.575 67.7033 57.6443 67.81C57.7163 67.914 57.7616 68.0313 57.7803 68.162L57.3443 68.186C57.331 68.1113 57.3043 68.0473 57.2643 67.994C57.227 67.938 57.1763 67.8953 57.1123 67.866C57.0483 67.834 56.9723 67.818 56.8843 67.818C56.7483 67.818 56.647 67.8447 56.5803 67.898C56.5136 67.9513 56.4803 68.0207 56.4803 68.106C56.4803 68.17 56.495 68.222 56.5243 68.262C56.5563 68.302 56.607 68.3353 56.6763 68.362C56.7456 68.386 56.8376 68.4073 56.9523 68.426C57.1736 68.4633 57.347 68.51 57.4723 68.566C57.5976 68.6193 57.6856 68.686 57.7363 68.766C57.787 68.846 57.8123 68.9433 57.8123 69.058C57.8123 69.1913 57.775 69.3047 57.7003 69.398C57.6256 69.4913 57.523 69.5633 57.3923 69.614C57.2616 69.662 57.111 69.686 56.9403 69.686ZM58.2954 69.638V67.374C58.2954 67.198 58.3447 67.058 58.4434 66.954C58.542 66.85 58.6967 66.798 58.9074 66.798H59.2834V67.146H58.9634C58.8807 67.146 58.8194 67.1687 58.7794 67.214C58.7394 67.2567 58.7194 67.318 58.7194 67.398V69.638H58.2954ZM57.9994 67.882V67.538H59.2514V67.882H57.9994ZM60.3558 69.686C60.1532 69.686 59.9758 69.6407 59.8238 69.55C59.6718 69.4593 59.5545 69.33 59.4718 69.162C59.3892 68.994 59.3478 68.798 59.3478 68.574C59.3478 68.3473 59.3892 68.1513 59.4718 67.986C59.5545 67.8207 59.6718 67.6927 59.8238 67.602C59.9758 67.5087 60.1532 67.462 60.3558 67.462C60.5585 67.462 60.7358 67.5087 60.8878 67.602C61.0398 67.6927 61.1572 67.8207 61.2398 67.986C61.3225 68.1513 61.3638 68.3473 61.3638 68.574C61.3638 68.798 61.3225 68.994 61.2398 69.162C61.1572 69.33 61.0398 69.4593 60.8878 69.55C60.7358 69.6407 60.5585 69.686 60.3558 69.686ZM60.3558 69.318C60.5372 69.318 60.6772 69.2527 60.7758 69.122C60.8745 68.9887 60.9238 68.806 60.9238 68.574C60.9238 68.342 60.8745 68.1607 60.7758 68.03C60.6772 67.8967 60.5372 67.83 60.3558 67.83C60.1772 67.83 60.0372 67.8967 59.9358 68.03C59.8372 68.1607 59.7878 68.342 59.7878 68.574C59.7878 68.806 59.8372 68.9887 59.9358 69.122C60.0372 69.2527 60.1772 69.318 60.3558 69.318ZM61.7123 69.638V67.51H62.1003L62.1163 68.074L62.0803 68.062C62.1097 67.87 62.1683 67.73 62.2563 67.642C62.347 67.554 62.4683 67.51 62.6203 67.51H62.8243V67.89H62.6203C62.5137 67.89 62.4243 67.9073 62.3523 67.942C62.2803 67.9767 62.2257 68.03 62.1883 68.102C62.1537 68.174 62.1363 68.2673 62.1363 68.382V69.638H61.7123ZM63.062 69.638V67.51H63.45L63.462 68.038L63.414 68.022C63.438 67.9047 63.4793 67.8047 63.538 67.722C63.5993 67.6393 63.674 67.5753 63.762 67.53C63.85 67.4847 63.946 67.462 64.05 67.462C64.2313 67.462 64.3793 67.514 64.494 67.618C64.6087 67.7193 64.6807 67.8593 64.71 68.038H64.642C64.666 67.9127 64.706 67.8087 64.762 67.726C64.8207 67.6407 64.8953 67.5753 64.986 67.53C65.0767 67.4847 65.1793 67.462 65.294 67.462C65.4433 67.462 65.57 67.494 65.674 67.558C65.7807 67.6193 65.8607 67.71 65.914 67.83C65.97 67.95 65.998 68.0967 65.998 68.27V69.638H65.574V68.374C65.574 68.19 65.5407 68.0513 65.474 67.958C65.4073 67.8647 65.306 67.818 65.17 67.818C65.082 67.818 65.0047 67.8407 64.938 67.886C64.8713 67.9313 64.8193 67.9967 64.782 68.082C64.7473 68.1673 64.73 68.27 64.73 68.39V69.638H64.326V68.39C64.326 68.2087 64.2953 68.0687 64.234 67.97C64.1753 67.8687 64.074 67.818 63.93 67.818C63.8393 67.818 63.7607 67.8407 63.694 67.886C63.63 67.9313 63.5793 67.998 63.542 68.086C63.5047 68.1713 63.486 68.2727 63.486 68.39V69.638H63.062ZM67.0741 69.686C66.8528 69.686 66.6754 69.6353 66.5421 69.534C66.4114 69.4327 66.3461 69.29 66.3461 69.106C66.3461 68.922 66.4008 68.7793 66.5101 68.678C66.6221 68.574 66.7941 68.4993 67.0261 68.454L67.7581 68.314C67.7581 68.1487 67.7194 68.026 67.6421 67.946C67.5648 67.8633 67.4501 67.822 67.2981 67.822C67.1621 67.822 67.0554 67.8527 66.9781 67.914C66.9008 67.9727 66.8474 68.0607 66.8181 68.178L66.3821 68.15C66.4221 67.9367 66.5208 67.7687 66.6781 67.646C66.8381 67.5233 67.0448 67.462 67.2981 67.462C67.5861 67.462 67.8048 67.5393 67.9541 67.694C68.1061 67.846 68.1821 68.0607 68.1821 68.338V69.166C68.1821 69.2167 68.1901 69.2527 68.2061 69.274C68.2248 69.2927 68.2541 69.302 68.2941 69.302H68.3701V69.638C68.3568 69.6407 68.3354 69.6433 68.3061 69.646C68.2768 69.6487 68.2461 69.65 68.2141 69.65C68.1234 69.65 68.0448 69.6353 67.9781 69.606C67.9141 69.5767 67.8661 69.5287 67.8341 69.462C67.8021 69.3927 67.7861 69.3007 67.7861 69.186L67.8301 69.206C67.8088 69.2993 67.7621 69.382 67.6901 69.454C67.6208 69.526 67.5314 69.5833 67.4221 69.626C67.3154 69.666 67.1994 69.686 67.0741 69.686ZM67.1421 69.35C67.2701 69.35 67.3794 69.326 67.4701 69.278C67.5608 69.2273 67.6314 69.158 67.6821 69.07C67.7328 68.982 67.7581 68.882 67.7581 68.77V68.634L67.1341 68.754C67.0061 68.778 66.9154 68.8167 66.8621 68.87C66.8114 68.9207 66.7861 68.986 66.7861 69.066C66.7861 69.1567 66.8168 69.2273 66.8781 69.278C66.9421 69.326 67.0301 69.35 67.1421 69.35ZM69.3547 69.638C69.1521 69.638 69.0027 69.5913 68.9067 69.498C68.8107 69.4047 68.7627 69.2593 68.7627 69.062V67.01H69.1867V69.03C69.1867 69.1287 69.2081 69.1967 69.2507 69.234C69.2934 69.2713 69.3587 69.29 69.4467 69.29H69.7507V69.638H69.3547ZM68.4387 67.858V67.51H69.7507V67.858H68.4387ZM70.0759 69.638V67.51H70.4999V69.638H70.0759ZM70.0679 67.202V66.778H70.5079V67.202H70.0679ZM71.8563 69.686C71.6536 69.686 71.4763 69.6407 71.3243 69.55C71.1723 69.4593 71.055 69.33 70.9723 69.162C70.8896 68.994 70.8483 68.798 70.8483 68.574C70.8483 68.3473 70.8896 68.1513 70.9723 67.986C71.055 67.8207 71.1723 67.6927 71.3243 67.602C71.4763 67.5087 71.6536 67.462 71.8563 67.462C72.059 67.462 72.2363 67.5087 72.3883 67.602C72.5403 67.6927 72.6576 67.8207 72.7403 67.986C72.823 68.1513 72.8643 68.3473 72.8643 68.574C72.8643 68.798 72.823 68.994 72.7403 69.162C72.6576 69.33 72.5403 69.4593 72.3883 69.55C72.2363 69.6407 72.059 69.686 71.8563 69.686ZM71.8563 69.318C72.0376 69.318 72.1776 69.2527 72.2763 69.122C72.375 68.9887 72.4243 68.806 72.4243 68.574C72.4243 68.342 72.375 68.1607 72.2763 68.03C72.1776 67.8967 72.0376 67.83 71.8563 67.83C71.6776 67.83 71.5376 67.8967 71.4363 68.03C71.3376 68.1607 71.2883 68.342 71.2883 68.574C71.2883 68.806 71.3376 68.9887 71.4363 69.122C71.5376 69.2527 71.6776 69.318 71.8563 69.318ZM73.2128 69.638V67.51H73.6008L73.6168 68.078L73.5648 68.05C73.5888 67.9113 73.6341 67.7993 73.7008 67.714C73.7675 67.6287 73.8488 67.566 73.9448 67.526C74.0408 67.4833 74.1448 67.462 74.2568 67.462C74.4168 67.462 74.5488 67.498 74.6528 67.57C74.7595 67.6393 74.8395 67.7353 74.8928 67.858C74.9488 67.978 74.9768 68.1153 74.9768 68.27V69.638H74.5528V68.398C74.5528 68.2727 74.5395 68.1673 74.5128 68.082C74.4861 67.9967 74.4421 67.9313 74.3808 67.886C74.3195 67.8407 74.2395 67.818 74.1408 67.818C73.9915 67.818 73.8701 67.8673 73.7768 67.966C73.6835 68.0647 73.6368 68.2087 73.6368 68.398V69.638H73.2128Z" fill="black"/>
</g>
<defs>
<clipPath id="clip0_23_6">
<rect width="95" height="70.638" fill="white"/>
</clipPath>
</defs>
</svg>
