<svg width="379" height="46" viewBox="0 0 379 46" fill="none" xmlns="http://www.w3.org/2000/svg">
<g clip-path="url(#clip0_33_2)">
<path d="M48.5 10.572L43.5851 16.4699C43.5301 16.5359 43.5 16.619 43.5 16.7049C43.5 16.9076 43.6644 17.072 43.8671 17.072H43.8991H70L49.1698 44.3497C49.0597 44.4939 49 44.6703 49 44.8517V44.8906C49 45.0095 49.0311 45.1263 49.0902 45.2294C49.2116 45.4413 49.4372 45.572 49.6814 45.572H77L78 45.072L78.7097 44.7171C78.902 44.621 79.0775 44.4945 79.2295 44.3425L79.5 44.072L83.2791 39.3481C83.4049 39.1909 83.3923 38.9643 83.25 38.822C83.0899 38.6619 82.8728 38.572 82.6464 38.572H63.5L81.7113 14.4543C81.8768 14.2351 81.8555 13.9275 81.6613 13.7332C81.558 13.63 81.418 13.572 81.272 13.572H77.5V10.9255C77.5 10.6992 77.4101 10.4821 77.25 10.322C77.0899 10.1619 76.8728 10.072 76.6464 10.072H50L48.5 10.572Z" fill="#5711C5"/>
<path d="M0.5 11.072L20.9047 44.4163C20.9663 44.5169 21.0613 44.5924 21.1731 44.6297L22.3419 45.0193C22.4445 45.0535 22.5555 45.0535 22.6581 45.0193L24 44.572L32.3594 32.2787C32.4474 32.1494 32.5936 32.072 32.75 32.072C32.9058 32.072 33.0508 32.1514 33.1348 32.2826L40.8514 44.3399C40.9487 44.4918 41.0852 44.6146 41.2465 44.6952L41.6295 44.8867C41.8667 45.0054 42.1414 45.0249 42.393 44.941L43.1826 44.6778C43.3886 44.6091 43.5666 44.4753 43.6898 44.2964L58.9951 22.079C58.9984 22.0744 59.002 22.07 59.0061 22.0659L59.1883 21.8837C59.3879 21.6841 59.5 21.4134 59.5 21.1311C59.5 21.0985 59.4735 21.072 59.4409 21.072H50.7361C50.5808 21.072 50.4277 21.1081 50.2889 21.1776L49.7197 21.4622C49.5754 21.5343 49.4507 21.6403 49.3562 21.7711L43.9061 29.3173C43.4811 29.9058 42.5904 29.8596 42.2285 29.2303L31.6502 10.8332C31.5522 10.6628 31.4063 10.5251 31.2305 10.4372L31 10.322L30.9223 10.2831C30.6446 10.1443 30.3384 10.072 30.0279 10.072H21.4148C21.2052 10.072 21.0302 10.232 21.0117 10.4408C21.0041 10.5261 21.0237 10.6115 21.0677 10.6849L28.1581 22.5021C28.3652 22.8474 28.3451 23.2832 28.107 23.6079L23.8971 29.3486C23.4725 29.9277 22.5941 29.8838 22.2294 29.2653L11.5645 11.1813C11.5217 11.1087 11.4698 11.0418 11.4102 10.9822L10.7929 10.3649C10.6054 10.1773 10.351 10.072 10.0858 10.072H0.577933C0.31241 10.072 0.139714 10.3514 0.25846 10.5889L0.5 11.072Z" fill="black" stroke="black"/>
<rect x="84.5" y="8.00618" width="4" height="4" rx="0.5" fill="#5711C5"/>
<rect x="86.6797" width="4" height="4" rx="0.5" fill="#5711C5"/>
<rect x="79.3239" y="3.00618" width="4" height="4" rx="0.5" fill="#5711C5"/>
<path d="M110.5 43.5679L102.31 13.7479H110.794L115.246 32.1439L119.824 13.7479H126.376L130.954 32.1439L135.364 13.7479H143.848L135.7 43.5679H127.3L123.1 27.1879L118.9 43.5679H110.5ZM153.381 44.0719C150.945 44.0719 148.817 43.5819 146.997 42.6019C145.177 41.6219 143.763 40.2499 142.755 38.4859C141.747 36.6939 141.243 34.6079 141.243 32.2279C141.243 29.8479 141.747 27.7759 142.755 26.0119C143.763 24.2479 145.177 22.8759 146.997 21.8959C148.817 20.8879 150.945 20.3839 153.381 20.3839C155.817 20.3839 157.917 20.9019 159.681 21.9379C161.473 22.9459 162.845 24.3879 163.797 26.2639C164.749 28.1399 165.225 30.3519 165.225 32.8999V34.3279H149.643C149.699 35.6999 150.077 36.7219 150.777 37.3939C151.505 38.0379 152.429 38.3599 153.549 38.3599C154.361 38.3599 155.047 38.2059 155.607 37.8979C156.195 37.5899 156.615 37.0439 156.867 36.2599L164.931 36.6799C164.315 39.1159 162.971 40.9639 160.899 42.2239C158.827 43.4559 156.321 44.0719 153.381 44.0719ZM149.643 29.9599H157.077C157.049 28.6439 156.699 27.6499 156.027 26.9779C155.355 26.2779 154.473 25.9279 153.381 25.9279C152.345 25.9279 151.477 26.2919 150.777 27.0199C150.105 27.7479 149.727 28.7279 149.643 29.9599ZM180.345 44.0719C178.749 44.0719 177.391 43.7499 176.271 43.1059C175.151 42.4339 174.269 41.4959 173.625 40.2919L173.499 43.5679H165.561V13.7479H173.709V24.1639C174.353 23.0159 175.235 22.1059 176.355 21.4339C177.475 20.7339 178.805 20.3839 180.345 20.3839C182.221 20.3839 183.845 20.8739 185.217 21.8539C186.617 22.8339 187.695 24.2199 188.451 26.0119C189.207 27.7759 189.585 29.8479 189.585 32.2279C189.585 34.6079 189.207 36.6939 188.451 38.4859C187.695 40.2499 186.617 41.6219 185.217 42.6019C183.845 43.5819 182.221 44.0719 180.345 44.0719ZM177.573 38.2339C178.637 38.2339 179.505 37.7159 180.177 36.6799C180.877 35.6439 181.227 34.1599 181.227 32.2279C181.227 30.2959 180.891 28.8119 180.219 27.7759C179.575 26.7399 178.693 26.2219 177.573 26.2219C176.761 26.2219 176.061 26.4599 175.473 26.9359C174.885 27.3839 174.437 28.0559 174.129 28.9519C173.849 29.8479 173.709 30.9399 173.709 32.2279C173.709 33.4879 173.849 34.5659 174.129 35.4619C174.437 36.3579 174.885 37.0439 175.473 37.5199C176.061 37.9959 176.761 38.2339 177.573 38.2339ZM232.718 44.2399C230.058 44.2399 227.72 43.6239 225.704 42.3919C223.688 41.1319 222.12 39.3399 221 37.0159C219.88 34.6919 219.32 31.9199 219.32 28.6999C219.32 25.4799 219.88 22.7079 221 20.3839C222.12 18.0319 223.688 16.2259 225.704 14.9659C227.72 13.7059 230.058 13.0759 232.718 13.0759C236.33 13.0759 239.13 13.9859 241.118 15.8059C243.106 17.6259 244.408 20.1039 245.024 23.2399L241.202 23.4919C240.782 21.3639 239.886 19.6839 238.514 18.4519C237.142 17.2199 235.21 16.6039 232.718 16.6039C230.814 16.6039 229.134 17.0939 227.678 18.0739C226.25 19.0259 225.13 20.4119 224.318 22.2319C223.506 24.0239 223.1 26.1799 223.1 28.6999C223.1 31.2199 223.506 33.3759 224.318 35.1679C225.13 36.9599 226.25 38.3319 227.678 39.2839C229.134 40.2359 230.814 40.7119 232.718 40.7119C235.322 40.7119 237.338 40.0399 238.766 38.6959C240.194 37.3239 241.09 35.4759 241.454 33.1519L245.276 33.4039C244.912 35.5599 244.198 37.4499 243.134 39.0739C242.07 40.6979 240.656 41.9719 238.892 42.8959C237.156 43.7919 235.098 44.2399 232.718 44.2399ZM247.053 43.5679V21.3079H250.161L250.329 26.9359L249.993 26.8099C250.273 24.9059 250.875 23.5199 251.799 22.6519C252.751 21.7559 254.011 21.3079 255.579 21.3079H257.763V24.6679H255.621C254.501 24.6679 253.563 24.8779 252.807 25.2979C252.079 25.6899 251.519 26.2919 251.127 27.1039C250.763 27.8879 250.581 28.8959 250.581 30.1279V43.5679H247.053ZM267.039 44.0719C264.939 44.0719 263.119 43.5959 261.579 42.6439C260.067 41.6919 258.891 40.3479 258.051 38.6119C257.239 36.8479 256.833 34.7899 256.833 32.4379C256.833 30.0859 257.239 28.0419 258.051 26.3059C258.891 24.5699 260.053 23.2259 261.537 22.2739C263.049 21.2939 264.827 20.8039 266.871 20.8039C268.803 20.8039 270.511 21.2659 271.995 22.1899C273.479 23.0859 274.627 24.4019 275.439 26.1379C276.279 27.8739 276.699 29.9879 276.699 32.4799V33.5299H260.529C260.669 35.9099 261.299 37.7019 262.419 38.9059C263.567 40.1099 265.107 40.7119 267.039 40.7119C268.495 40.7119 269.685 40.3759 270.609 39.7039C271.561 39.0039 272.219 38.0939 272.583 36.9739L276.363 37.2679C275.775 39.2559 274.655 40.8939 273.003 42.1819C271.379 43.4419 269.391 44.0719 267.039 44.0719ZM260.529 30.4219H272.835C272.667 28.2659 272.037 26.6839 270.945 25.6759C269.881 24.6679 268.523 24.1639 266.871 24.1639C265.163 24.1639 263.749 24.6959 262.629 25.7599C261.537 26.7959 260.837 28.3499 260.529 30.4219ZM285.118 44.0719C282.822 44.0719 280.988 43.5399 279.616 42.4759C278.272 41.4119 277.6 39.9279 277.6 38.0239C277.6 36.1199 278.16 34.6219 279.28 33.5299C280.4 32.4379 282.178 31.6679 284.614 31.2199L292.51 29.7499C292.51 27.8739 292.062 26.4739 291.166 25.5499C290.298 24.6259 288.982 24.1639 287.218 24.1639C285.678 24.1639 284.46 24.5139 283.564 25.2139C282.668 25.8859 282.052 26.8659 281.716 28.1539L277.978 27.8599C278.398 25.7599 279.406 24.0659 281.002 22.7779C282.626 21.4619 284.698 20.8039 287.218 20.8039C290.074 20.8039 292.258 21.6159 293.77 23.2399C295.282 24.8359 296.038 27.0479 296.038 29.8759V39.0739C296.038 39.5779 296.122 39.9419 296.29 40.1659C296.486 40.3619 296.794 40.4599 297.214 40.4599H298.096V43.5679C297.984 43.5959 297.802 43.6099 297.55 43.6099C297.298 43.6379 297.032 43.6519 296.752 43.6519C295.744 43.6519 294.918 43.4979 294.274 43.1899C293.658 42.8539 293.21 42.3499 292.93 41.6779C292.65 40.9779 292.51 40.0679 292.51 38.9479L292.93 39.0319C292.734 39.9839 292.258 40.8519 291.502 41.6359C290.746 42.3919 289.808 42.9939 288.688 43.4419C287.568 43.8619 286.378 44.0719 285.118 44.0719ZM285.454 40.9639C286.938 40.9639 288.198 40.6839 289.234 40.1239C290.298 39.5359 291.11 38.7519 291.67 37.7719C292.23 36.7639 292.51 35.6439 292.51 34.4119V32.8159L285.286 34.1599C283.774 34.4399 282.724 34.8739 282.136 35.4619C281.576 36.0219 281.296 36.7639 281.296 37.6879C281.296 38.7239 281.66 39.5359 282.388 40.1239C283.144 40.6839 284.166 40.9639 285.454 40.9639ZM306.181 43.5679C304.165 43.5679 302.667 43.1059 301.687 42.1819C300.735 41.2579 300.259 39.8159 300.259 37.8559V16.0999H303.787V37.7719C303.787 38.7799 304.011 39.4799 304.459 39.8719C304.907 40.2639 305.593 40.4599 306.517 40.4599H309.709V43.5679H306.181ZM296.983 24.4159V21.3079H309.709V24.4159H296.983ZM311.295 43.5679V21.3079H314.823V43.5679H311.295ZM311.211 17.8219V13.7059H314.907V17.8219H311.211ZM326.892 44.0719C324.848 44.0719 323.056 43.5959 321.516 42.6439C319.976 41.6919 318.786 40.3479 317.946 38.6119C317.106 36.8479 316.686 34.7899 316.686 32.4379C316.686 30.0579 317.106 27.9999 317.946 26.2639C318.786 24.5279 319.976 23.1839 321.516 22.2319C323.056 21.2799 324.848 20.8039 326.892 20.8039C328.936 20.8039 330.714 21.2799 332.226 22.2319C333.766 23.1839 334.956 24.5279 335.796 26.2639C336.636 27.9999 337.056 30.0579 337.056 32.4379C337.056 34.7899 336.636 36.8479 335.796 38.6119C334.956 40.3479 333.766 41.6919 332.226 42.6439C330.714 43.5959 328.936 44.0719 326.892 44.0719ZM326.892 40.7119C328.936 40.7119 330.518 39.9839 331.638 38.5279C332.786 37.0439 333.36 35.0139 333.36 32.4379C333.36 29.8619 332.786 27.8459 331.638 26.3899C330.518 24.9059 328.936 24.1639 326.892 24.1639C324.848 24.1639 323.252 24.9059 322.104 26.3899C320.956 27.8459 320.382 29.8619 320.382 32.4379C320.382 35.0139 320.956 37.0439 322.104 38.5279C323.252 39.9839 324.848 40.7119 326.892 40.7119ZM338.924 43.5679V21.3079H342.158L342.284 26.9779L341.864 26.5999C342.144 25.2839 342.634 24.2059 343.334 23.3659C344.034 22.4979 344.874 21.8539 345.854 21.4339C346.862 21.0139 347.94 20.8039 349.088 20.8039C350.796 20.8039 352.196 21.1819 353.288 21.9379C354.408 22.6939 355.234 23.7159 355.766 25.0039C356.326 26.2639 356.606 27.6779 356.606 29.2459V43.5679H353.078V30.2539C353.078 28.8819 352.91 27.7339 352.574 26.8099C352.266 25.8579 351.762 25.1439 351.062 24.6679C350.362 24.1639 349.452 23.9119 348.332 23.9119C346.624 23.9119 345.21 24.4579 344.09 25.5499C342.998 26.6139 342.452 28.1819 342.452 30.2539V43.5679H338.924ZM368.002 44.0719C366.014 44.0719 364.32 43.7499 362.92 43.1059C361.548 42.4619 360.47 41.5799 359.686 40.4599C358.93 39.3119 358.496 38.0099 358.384 36.5539L362.08 36.3019C362.304 37.6459 362.878 38.7239 363.802 39.5359C364.726 40.3199 366.126 40.7119 368.002 40.7119C369.514 40.7119 370.718 40.4739 371.614 39.9979C372.538 39.4939 373 38.6959 373 37.6039C373 37.0159 372.86 36.5259 372.58 36.1339C372.3 35.7419 371.754 35.4059 370.942 35.1259C370.13 34.8179 368.926 34.5239 367.33 34.2439C365.202 33.8519 363.522 33.3759 362.29 32.8159C361.086 32.2279 360.218 31.5139 359.686 30.6739C359.182 29.8059 358.93 28.7839 358.93 27.6079C358.93 25.6199 359.658 23.9959 361.114 22.7359C362.57 21.4479 364.642 20.8039 367.33 20.8039C369.15 20.8039 370.676 21.1399 371.908 21.8119C373.168 22.4559 374.148 23.3239 374.848 24.4159C375.576 25.4799 376.052 26.6559 376.276 27.9439L372.58 28.1959C372.412 27.4119 372.104 26.7259 371.656 26.1379C371.208 25.5219 370.62 25.0459 369.892 24.7099C369.164 24.3459 368.296 24.1639 367.288 24.1639C365.692 24.1639 364.516 24.4719 363.76 25.0879C363.004 25.7039 362.626 26.4879 362.626 27.4399C362.626 28.1679 362.794 28.7699 363.13 29.2459C363.494 29.6939 364.068 30.0719 364.852 30.3799C365.636 30.6599 366.686 30.9119 368.002 31.1359C370.27 31.5279 372.034 32.0039 373.294 32.5639C374.554 33.1239 375.436 33.8099 375.94 34.6219C376.444 35.4339 376.696 36.4279 376.696 37.6039C376.696 38.9759 376.304 40.1519 375.52 41.1319C374.764 42.0839 373.728 42.8119 372.412 43.3159C371.124 43.8199 369.654 44.0719 368.002 44.0719Z" fill="black"/>
<path d="M189.087 43.5679V37.3519L202.149 20.3419H189.843V13.7479H212.607V19.9639L199.125 36.9739H213.237V43.5679H189.087Z" fill="#5711C5"/>
</g>
<defs>
<clipPath id="clip0_33_2">
<rect width="378.68" height="45.572" fill="white"/>
</clipPath>
</defs>
</svg>
