<svg width="91" height="46" viewBox="0 0 91 46" fill="none" xmlns="http://www.w3.org/2000/svg">
<path d="M48.7804 10.572L43.8654 16.4699C43.8105 16.5359 43.7804 16.619 43.7804 16.7049C43.7804 16.9076 43.9447 17.072 44.1475 17.072H44.1795H70.2804L49.4502 44.3497C49.34 44.4939 49.2804 44.6703 49.2804 44.8517V44.8906C49.2804 45.0095 49.3115 45.1263 49.3706 45.2294C49.492 45.4413 49.7175 45.572 49.9618 45.572H77.2804L78.2804 45.072L78.9901 44.7171C79.1823 44.621 79.3579 44.4945 79.5099 44.3425L79.7804 44.072L83.5595 39.3481C83.6852 39.1909 83.6727 38.9643 83.5304 38.822C83.3703 38.6619 83.1532 38.572 82.9268 38.572H63.7804L81.9917 14.4543C82.1572 14.2351 82.1358 13.9275 81.9416 13.7332C81.8384 13.63 81.6983 13.572 81.5523 13.572H77.7804V10.9255C77.7804 10.6992 77.6904 10.4821 77.5304 10.322C77.3703 10.1619 77.1532 10.072 76.9268 10.072H50.2804L48.7804 10.572Z" fill="#5711C5"/>
<path d="M0.780365 11.072L21.1851 44.4163C21.2466 44.5169 21.3417 44.5924 21.4535 44.6297L22.6223 45.0193C22.7249 45.0535 22.8358 45.0535 22.9385 45.0193L24.2804 44.572L32.6398 32.2787C32.7277 32.1494 32.874 32.072 33.0304 32.072C33.1861 32.072 33.3312 32.1514 33.4151 32.2826L41.1318 44.3399C41.229 44.4918 41.3655 44.6146 41.5269 44.6952L41.9099 44.8867C42.1471 45.0054 42.4217 45.0249 42.6733 44.941L43.4629 44.6778C43.6689 44.6091 43.847 44.4753 43.9702 44.2964L59.2755 22.079C59.2787 22.0744 59.2824 22.07 59.2864 22.0659L59.4686 21.8837C59.6682 21.6841 59.7804 21.4134 59.7804 21.1311C59.7804 21.0985 59.7539 21.072 59.7212 21.072H51.0164C50.8612 21.072 50.7081 21.1081 50.5692 21.1776L50 21.4622C49.8557 21.5343 49.731 21.6403 49.6366 21.7711L44.1865 29.3173C43.7615 29.9058 42.8708 29.8596 42.5089 29.2303L31.9306 10.8332C31.8326 10.6628 31.6866 10.5251 31.5109 10.4372L31.2804 10.322L31.2027 10.2831C30.9249 10.1443 30.6187 10.072 30.3082 10.072H21.6951C21.4855 10.072 21.3106 10.232 21.292 10.4408C21.2844 10.5261 21.3041 10.6115 21.3481 10.6849L28.4384 22.5021C28.6456 22.8474 28.6255 23.2832 28.3873 23.6079L24.1775 29.3486C23.7529 29.9277 22.8745 29.8838 22.5097 29.2653L11.8449 11.1813C11.802 11.1087 11.7502 11.0418 11.6906 10.9822L11.0733 10.3649C10.8857 10.1773 10.6314 10.072 10.3662 10.072H0.858298C0.592775 10.072 0.420079 10.3514 0.538825 10.5889L0.780365 11.072Z" fill="black" stroke="black"/>
<rect x="84.7804" y="8.00618" width="4" height="4" rx="0.5" fill="#5711C5"/>
<rect x="86.9601" width="4" height="4" rx="0.5" fill="#5711C5"/>
<rect x="79.6043" y="3.00618" width="4" height="4" rx="0.5" fill="#5711C5"/>
</svg>
