<svg width="110" height="110" viewBox="0 0 110 110" fill="none" xmlns="http://www.w3.org/2000/svg">
<rect width="110" height="110" fill="white"/>
<line x1="85.6511" y1="88.4831" x2="101.349" y2="88.4831" stroke="#5811C6"/>
<path d="M58.5 30.253L53.5851 36.1509C53.5301 36.2169 53.5 36.3 53.5 36.3859C53.5 36.5886 53.6644 36.753 53.8671 36.753H53.8991H80L59.1698 64.0307C59.0597 64.1749 59 64.3513 59 64.5327V64.5716C59 64.6905 59.0311 64.8073 59.0902 64.9104C59.2116 65.1223 59.4372 65.253 59.6814 65.253H87L88 64.753L88.7097 64.3981C88.902 64.302 89.0775 64.1755 89.2295 64.0235L89.5 63.753L93.2791 59.0291C93.4049 58.8719 93.3923 58.6453 93.25 58.503C93.0899 58.3429 92.8728 58.253 92.6464 58.253H73.5L91.7113 34.1353C91.8768 33.9161 91.8555 33.6085 91.6613 33.4142C91.558 33.311 91.418 33.253 91.272 33.253H87.5V30.6065C87.5 30.3802 87.4101 30.1631 87.25 30.003C87.0899 29.8429 86.8728 29.753 86.6464 29.753H60L58.5 30.253Z" fill="#5711C5"/>
<path d="M10.5 30.753L30.9047 64.0973C30.9663 64.1979 31.0613 64.2734 31.1731 64.3107L32.3419 64.7003C32.4445 64.7345 32.5555 64.7345 32.6581 64.7003L34 64.253L42.3594 51.9597C42.4474 51.8304 42.5936 51.753 42.75 51.753C42.9058 51.753 43.0508 51.8324 43.1348 51.9636L50.8514 64.0209C50.9487 64.1728 51.0852 64.2956 51.2465 64.3762L51.6295 64.5677C51.8667 64.6864 52.1413 64.7059 52.393 64.622L53.1826 64.3588C53.3886 64.2901 53.5666 64.1563 53.6898 63.9774L68.9951 41.76C68.9984 41.7554 69.002 41.751 69.0061 41.7469L69.1883 41.5647C69.3879 41.3651 69.5 41.0944 69.5 40.8121C69.5 40.7795 69.4735 40.753 69.4409 40.753H60.7361C60.5808 40.753 60.4277 40.7891 60.2889 40.8586L59.7197 41.1432C59.5754 41.2153 59.4507 41.3213 59.3562 41.4521L53.9061 48.9984C53.4811 49.5868 52.5904 49.5406 52.2285 48.9113L41.6502 30.5142C41.5522 30.3438 41.4063 30.2061 41.2305 30.1182L41 30.003L40.9223 29.9641C40.6446 29.8253 40.3384 29.753 40.0279 29.753H31.4148C31.2052 29.753 31.0302 29.913 31.0117 30.1218C31.0041 30.2071 31.0237 30.2925 31.0677 30.3659L38.1581 42.1831C38.3652 42.5284 38.3451 42.9642 38.107 43.2889L33.8971 49.0296C33.4725 49.6087 32.5941 49.5648 32.2294 48.9463L21.5645 30.8623C21.5217 30.7897 21.4698 30.7228 21.4102 30.6632L20.7929 30.0459C20.6054 29.8583 20.351 29.753 20.0858 29.753H10.5779C10.3124 29.753 10.1397 30.0324 10.2585 30.2699L10.5 30.753Z" fill="black" stroke="black"/>
<rect x="94.5" y="27.6872" width="4" height="4" rx="0.5" fill="#5711C5"/>
<rect x="96.6797" y="19.681" width="4" height="4" rx="0.5" fill="#5711C5"/>
<rect x="89.3239" y="22.6872" width="4" height="4" rx="0.5" fill="#5711C5"/>
<path d="M10.503 81.319L7.968 72.089H10.594L11.972 77.783L13.389 72.089H15.417L16.834 77.783L18.199 72.089H20.825L18.303 81.319H15.703L14.403 76.249L13.103 81.319H10.503ZM24.4257 81.475C23.6717 81.475 23.013 81.3233 22.4497 81.02C21.8864 80.7167 21.4487 80.292 21.1367 79.746C20.8247 79.1913 20.6687 78.5457 20.6687 77.809C20.6687 77.0723 20.8247 76.431 21.1367 75.885C21.4487 75.339 21.8864 74.9143 22.4497 74.611C23.013 74.299 23.6717 74.143 24.4257 74.143C25.1797 74.143 25.8297 74.3033 26.3757 74.624C26.9304 74.936 27.355 75.3823 27.6497 75.963C27.9444 76.5437 28.0917 77.2283 28.0917 78.017V78.459H23.2687C23.286 78.8837 23.403 79.2 23.6197 79.408C23.845 79.6073 24.131 79.707 24.4777 79.707C24.729 79.707 24.9414 79.6593 25.1147 79.564C25.2967 79.4687 25.4267 79.2997 25.5047 79.057L28.0007 79.187C27.81 79.941 27.394 80.513 26.7527 80.903C26.1114 81.2843 25.3357 81.475 24.4257 81.475ZM23.2687 77.107H25.5697C25.561 76.6997 25.4527 76.392 25.2447 76.184C25.0367 75.9673 24.7637 75.859 24.4257 75.859C24.105 75.859 23.8364 75.9717 23.6197 76.197C23.4117 76.4223 23.2947 76.7257 23.2687 77.107ZM33.4217 81.475C32.9277 81.475 32.5074 81.3753 32.1607 81.176C31.814 80.968 31.541 80.6777 31.3417 80.305L31.3027 81.319H28.8457V72.089H31.3677V75.313C31.567 74.9577 31.84 74.676 32.1867 74.468C32.5334 74.2513 32.945 74.143 33.4217 74.143C34.0024 74.143 34.505 74.2947 34.9297 74.598C35.363 74.9013 35.6967 75.3303 35.9307 75.885C36.1647 76.431 36.2817 77.0723 36.2817 77.809C36.2817 78.5457 36.1647 79.1913 35.9307 79.746C35.6967 80.292 35.363 80.7167 34.9297 81.02C34.505 81.3233 34.0024 81.475 33.4217 81.475ZM32.5637 79.668C32.893 79.668 33.1617 79.5077 33.3697 79.187C33.5864 78.8663 33.6947 78.407 33.6947 77.809C33.6947 77.211 33.5907 76.7517 33.3827 76.431C33.1834 76.1103 32.9104 75.95 32.5637 75.95C32.3124 75.95 32.0957 76.0237 31.9137 76.171C31.7317 76.3097 31.593 76.5177 31.4977 76.795C31.411 77.0723 31.3677 77.4103 31.3677 77.809C31.3677 78.199 31.411 78.5327 31.4977 78.81C31.593 79.0873 31.7317 79.2997 31.9137 79.447C32.0957 79.5943 32.3124 79.668 32.5637 79.668ZM51.5824 81.527C50.7591 81.527 50.0354 81.3363 49.4114 80.955C48.7874 80.565 48.3021 80.0103 47.9554 79.291C47.6087 78.5717 47.4354 77.7137 47.4354 76.717C47.4354 75.7203 47.6087 74.8623 47.9554 74.143C48.3021 73.415 48.7874 72.856 49.4114 72.466C50.0354 72.076 50.7591 71.881 51.5824 71.881C52.7004 71.881 53.5671 72.1627 54.1824 72.726C54.7977 73.2893 55.2007 74.0563 55.3914 75.027L54.2084 75.105C54.0784 74.4463 53.8011 73.9263 53.3764 73.545C52.9517 73.1637 52.3537 72.973 51.5824 72.973C50.9931 72.973 50.4731 73.1247 50.0224 73.428C49.5804 73.7227 49.2337 74.1517 48.9824 74.715C48.7311 75.2697 48.6054 75.937 48.6054 76.717C48.6054 77.497 48.7311 78.1643 48.9824 78.719C49.2337 79.2737 49.5804 79.6983 50.0224 79.993C50.4731 80.2877 50.9931 80.435 51.5824 80.435C52.3884 80.435 53.0124 80.227 53.4544 79.811C53.8964 79.3863 54.1737 78.8143 54.2864 78.095L55.4694 78.173C55.3567 78.8403 55.1357 79.4253 54.8064 79.928C54.4771 80.4307 54.0394 80.825 53.4934 81.111C52.9561 81.3883 52.3191 81.527 51.5824 81.527ZM56.6695 81.319V74.429H57.6315L57.6835 76.171L57.5795 76.132C57.6661 75.5427 57.8525 75.1137 58.1385 74.845C58.4331 74.5677 58.8231 74.429 59.3085 74.429H59.9845V75.469H59.3215C58.9748 75.469 58.6845 75.534 58.4505 75.664C58.2251 75.7853 58.0518 75.9717 57.9305 76.223C57.8178 76.4657 57.7615 76.7777 57.7615 77.159V81.319H56.6695ZM63.5057 81.475C62.8557 81.475 62.2924 81.3277 61.8157 81.033C61.3477 80.7383 60.9837 80.3223 60.7237 79.785C60.4724 79.239 60.3467 78.602 60.3467 77.874C60.3467 77.146 60.4724 76.5133 60.7237 75.976C60.9837 75.4387 61.3434 75.0227 61.8027 74.728C62.2707 74.4247 62.8211 74.273 63.4537 74.273C64.0517 74.273 64.5804 74.416 65.0397 74.702C65.4991 74.9793 65.8544 75.3867 66.1057 75.924C66.3657 76.4613 66.4957 77.1157 66.4957 77.887V78.212H61.4907C61.5341 78.9487 61.7291 79.5033 62.0757 79.876C62.4311 80.2487 62.9077 80.435 63.5057 80.435C63.9564 80.435 64.3247 80.331 64.6107 80.123C64.9054 79.9063 65.1091 79.6247 65.2217 79.278L66.3917 79.369C66.2097 79.9843 65.8631 80.4913 65.3517 80.89C64.8491 81.28 64.2337 81.475 63.5057 81.475ZM61.4907 77.25H65.2997C65.2477 76.5827 65.0527 76.093 64.7147 75.781C64.3854 75.469 63.9651 75.313 63.4537 75.313C62.9251 75.313 62.4874 75.4777 62.1407 75.807C61.8027 76.1277 61.5861 76.6087 61.4907 77.25ZM69.7516 81.475C69.0409 81.475 68.4733 81.3103 68.0486 80.981C67.6326 80.6517 67.4246 80.1923 67.4246 79.603C67.4246 79.0137 67.5979 78.55 67.9446 78.212C68.2913 77.874 68.8416 77.6357 69.5956 77.497L72.0396 77.042C72.0396 76.4613 71.9009 76.028 71.6236 75.742C71.3549 75.456 70.9476 75.313 70.4016 75.313C69.9249 75.313 69.5479 75.4213 69.2706 75.638C68.9933 75.846 68.8026 76.1493 68.6986 76.548L67.5416 76.457C67.6716 75.807 67.9836 75.2827 68.4776 74.884C68.9803 74.4767 69.6216 74.273 70.4016 74.273C71.2856 74.273 71.9616 74.5243 72.4296 75.027C72.8976 75.521 73.1316 76.2057 73.1316 77.081V79.928C73.1316 80.084 73.1576 80.1967 73.2096 80.266C73.2703 80.3267 73.3656 80.357 73.4956 80.357H73.7686V81.319C73.7339 81.3277 73.6776 81.332 73.5996 81.332C73.5216 81.3407 73.4393 81.345 73.3526 81.345C73.0406 81.345 72.7849 81.2973 72.5856 81.202C72.3949 81.098 72.2563 80.942 72.1696 80.734C72.0829 80.5173 72.0396 80.2357 72.0396 79.889L72.1696 79.915C72.1089 80.2097 71.9616 80.4783 71.7276 80.721C71.4936 80.955 71.2033 81.1413 70.8566 81.28C70.5099 81.41 70.1416 81.475 69.7516 81.475ZM69.8556 80.513C70.3149 80.513 70.7049 80.4263 71.0256 80.253C71.3549 80.071 71.6063 79.8283 71.7796 79.525C71.9529 79.213 72.0396 78.8663 72.0396 78.485V77.991L69.8036 78.407C69.3356 78.4937 69.0106 78.628 68.8286 78.81C68.6553 78.9833 68.5686 79.213 68.5686 79.499C68.5686 79.8197 68.6813 80.071 68.9066 80.253C69.1406 80.4263 69.4569 80.513 69.8556 80.513ZM76.9212 81.319C76.2972 81.319 75.8336 81.176 75.5302 80.89C75.2356 80.604 75.0882 80.1577 75.0882 79.551V72.817H76.1802V79.525C76.1802 79.837 76.2496 80.0537 76.3882 80.175C76.5269 80.2963 76.7392 80.357 77.0252 80.357H78.0132V81.319H76.9212ZM74.0742 75.391V74.429H78.0132V75.391H74.0742ZM79.1539 81.319V74.429H80.2459V81.319H79.1539ZM79.1279 73.35V72.076H80.2719V73.35H79.1279ZM84.6317 81.475C83.9991 81.475 83.4444 81.3277 82.9677 81.033C82.4911 80.7383 82.1227 80.3223 81.8627 79.785C81.6027 79.239 81.4727 78.602 81.4727 77.874C81.4727 77.1373 81.6027 76.5003 81.8627 75.963C82.1227 75.4257 82.4911 75.0097 82.9677 74.715C83.4444 74.4203 83.9991 74.273 84.6317 74.273C85.2644 74.273 85.8147 74.4203 86.2827 74.715C86.7594 75.0097 87.1277 75.4257 87.3877 75.963C87.6477 76.5003 87.7777 77.1373 87.7777 77.874C87.7777 78.602 87.6477 79.239 87.3877 79.785C87.1277 80.3223 86.7594 80.7383 86.2827 81.033C85.8147 81.3277 85.2644 81.475 84.6317 81.475ZM84.6317 80.435C85.2644 80.435 85.7541 80.2097 86.1007 79.759C86.4561 79.2997 86.6337 78.6713 86.6337 77.874C86.6337 77.0767 86.4561 76.4527 86.1007 76.002C85.7541 75.5427 85.2644 75.313 84.6317 75.313C83.9991 75.313 83.5051 75.5427 83.1497 76.002C82.7944 76.4527 82.6167 77.0767 82.6167 77.874C82.6167 78.6713 82.7944 79.2997 83.1497 79.759C83.5051 80.2097 83.9991 80.435 84.6317 80.435ZM89.0059 81.319V74.429H90.0069L90.0459 76.184L89.9159 76.067C90.0026 75.6597 90.1543 75.326 90.3709 75.066C90.5876 74.7973 90.8476 74.598 91.1509 74.468C91.4629 74.338 91.7966 74.273 92.1519 74.273C92.6806 74.273 93.1139 74.39 93.4519 74.624C93.7986 74.858 94.0543 75.1743 94.2189 75.573C94.3923 75.963 94.4789 76.4007 94.4789 76.886V81.319H93.3869V77.198C93.3869 76.7733 93.3349 76.418 93.2309 76.132C93.1356 75.8373 92.9796 75.6163 92.7629 75.469C92.5463 75.313 92.2646 75.235 91.9179 75.235C91.3893 75.235 90.9516 75.404 90.6049 75.742C90.2669 76.0713 90.0979 76.5567 90.0979 77.198V81.319H89.0059ZM98.6563 81.475C98.041 81.475 97.5166 81.3753 97.0833 81.176C96.6586 80.9767 96.325 80.7037 96.0823 80.357C95.8483 80.0017 95.714 79.5987 95.6793 79.148L96.8233 79.07C96.8926 79.486 97.0703 79.8197 97.3563 80.071C97.6423 80.3137 98.0756 80.435 98.6563 80.435C99.1243 80.435 99.497 80.3613 99.7743 80.214C100.06 80.058 100.203 79.811 100.203 79.473C100.203 79.291 100.16 79.1393 100.073 79.018C99.9866 78.8967 99.8176 78.7927 99.5663 78.706C99.315 78.6107 98.9423 78.5197 98.4483 78.433C97.7896 78.3117 97.2696 78.1643 96.8883 77.991C96.5156 77.809 96.247 77.588 96.0823 77.328C95.9263 77.0593 95.8483 76.743 95.8483 76.379C95.8483 75.7637 96.0736 75.261 96.5243 74.871C96.975 74.4723 97.6163 74.273 98.4483 74.273C99.0116 74.273 99.484 74.377 99.8653 74.585C100.255 74.7843 100.559 75.053 100.775 75.391C101.001 75.7203 101.148 76.0843 101.217 76.483L100.073 76.561C100.021 76.3183 99.926 76.106 99.7873 75.924C99.6486 75.7333 99.4666 75.586 99.2413 75.482C99.016 75.3693 98.7473 75.313 98.4353 75.313C97.9413 75.313 97.5773 75.4083 97.3433 75.599C97.1093 75.7897 96.9923 76.0323 96.9923 76.327C96.9923 76.5523 97.0443 76.7387 97.1483 76.886C97.261 77.0247 97.4386 77.1417 97.6813 77.237C97.924 77.3237 98.249 77.4017 98.6563 77.471C99.3583 77.5923 99.9043 77.7397 100.294 77.913C100.684 78.0863 100.957 78.2987 101.113 78.55C101.269 78.8013 101.347 79.109 101.347 79.473C101.347 79.8977 101.226 80.2617 100.983 80.565C100.749 80.8597 100.429 81.085 100.021 81.241C99.6226 81.397 99.1676 81.475 98.6563 81.475Z" fill="black"/>
<path d="M36.7777 81.319V79.395L40.8207 74.13H37.0117V72.089H44.0577V74.013L39.8847 79.278H44.2527V81.319H36.7777Z" fill="#5711C5"/>
<line x1="9.99945" y1="88.4831" x2="25.6973" y2="88.4831" stroke="#5811C6"/>
<path d="M30.0182 89.319V86.479H30.9302C31.3755 86.479 31.7182 86.603 31.9582 86.851C32.1982 87.0963 32.3182 87.447 32.3182 87.903C32.3182 88.3563 32.1995 88.7057 31.9622 88.951C31.7275 89.1963 31.3915 89.319 30.9542 89.319H30.0182ZM30.4502 88.923H30.9302C31.2449 88.923 31.4795 88.839 31.6342 88.671C31.7915 88.5003 31.8702 88.2443 31.8702 87.903C31.8702 87.5563 31.7915 87.299 31.6342 87.131C31.4795 86.9603 31.2449 86.875 30.9302 86.875H30.4502V88.923ZM32.7145 89.319V87.191H33.1025L33.1185 87.755L33.0825 87.743C33.1118 87.551 33.1705 87.411 33.2585 87.323C33.3492 87.235 33.4705 87.191 33.6225 87.191H33.8265V87.571H33.6225C33.5158 87.571 33.4265 87.5883 33.3545 87.623C33.2825 87.6577 33.2278 87.711 33.1905 87.783C33.1558 87.855 33.1385 87.9483 33.1385 88.063V89.319H32.7145ZM34.0954 89.319V87.191H34.5194V89.319H34.0954ZM34.0874 86.883V86.459H34.5274V86.883H34.0874ZM35.5638 89.319L34.7878 87.191H35.2398L35.8198 88.887L36.3998 87.191H36.8558L36.0758 89.319H35.5638ZM37.119 89.319V87.191H37.543V89.319H37.119ZM37.111 86.883V86.459H37.551V86.883H37.111ZM38.0976 89.319V87.191H38.4856L38.5016 87.759L38.4496 87.731C38.4736 87.5923 38.519 87.4803 38.5856 87.395C38.6523 87.3097 38.7336 87.247 38.8296 87.207C38.9256 87.1643 39.0296 87.143 39.1416 87.143C39.3016 87.143 39.4336 87.179 39.5376 87.251C39.6443 87.3203 39.7243 87.4163 39.7776 87.539C39.8336 87.659 39.8616 87.7963 39.8616 87.951V89.319H39.4376V88.079C39.4376 87.9537 39.4243 87.8483 39.3976 87.763C39.371 87.6777 39.327 87.6123 39.2656 87.567C39.2043 87.5217 39.1243 87.499 39.0256 87.499C38.8763 87.499 38.755 87.5483 38.6616 87.647C38.5683 87.7457 38.5216 87.8897 38.5216 88.079V89.319H38.0976ZM41.19 89.967C41.022 89.967 40.874 89.9417 40.746 89.891C40.618 89.8403 40.5127 89.7683 40.43 89.675C40.3474 89.5843 40.2914 89.4777 40.262 89.355L40.702 89.327C40.7314 89.415 40.782 89.4843 40.854 89.535C40.9287 89.5883 41.0407 89.615 41.19 89.615C41.366 89.615 41.5007 89.5777 41.594 89.503C41.69 89.4283 41.738 89.315 41.738 89.163V88.855C41.6874 88.9643 41.606 89.051 41.494 89.115C41.382 89.179 41.2567 89.211 41.118 89.211C40.9394 89.211 40.7807 89.167 40.642 89.079C40.5034 88.991 40.3954 88.8697 40.318 88.715C40.2407 88.5603 40.202 88.3817 40.202 88.179C40.202 87.9737 40.2394 87.7937 40.314 87.639C40.3914 87.4843 40.498 87.363 40.634 87.275C40.7727 87.187 40.9287 87.143 41.102 87.143C41.254 87.143 41.3874 87.1777 41.502 87.247C41.6194 87.3163 41.7034 87.4097 41.754 87.527V87.191H42.162V89.151C42.162 89.327 42.122 89.475 42.042 89.595C41.9647 89.7177 41.8527 89.8097 41.706 89.871C41.562 89.935 41.39 89.967 41.19 89.967ZM41.186 88.851C41.3514 88.851 41.4834 88.791 41.582 88.671C41.6834 88.551 41.7354 88.3857 41.738 88.175C41.7407 88.0363 41.7194 87.9177 41.674 87.819C41.6287 87.7177 41.5634 87.6403 41.478 87.587C41.3954 87.531 41.298 87.503 41.186 87.503C41.0127 87.503 40.878 87.5643 40.782 87.687C40.6887 87.807 40.642 87.9697 40.642 88.175C40.642 88.383 40.69 88.5483 40.786 88.671C40.8847 88.791 41.018 88.851 41.186 88.851ZM43.6204 89.319V86.479H44.5324C44.9777 86.479 45.3204 86.603 45.5604 86.851C45.8004 87.0963 45.9204 87.447 45.9204 87.903C45.9204 88.3563 45.8017 88.7057 45.5644 88.951C45.3297 89.1963 44.9937 89.319 44.5564 89.319H43.6204ZM44.0524 88.923H44.5324C44.847 88.923 45.0817 88.839 45.2364 88.671C45.3937 88.5003 45.4724 88.2443 45.4724 87.903C45.4724 87.5563 45.3937 87.299 45.2364 87.131C45.0817 86.9603 44.847 86.875 44.5324 86.875H44.0524V88.923ZM46.2581 89.319V87.191H46.6821V89.319H46.2581ZM46.2501 86.883V86.459H46.6901V86.883H46.2501ZM48.0185 89.967C47.8505 89.967 47.7025 89.9417 47.5745 89.891C47.4465 89.8403 47.3411 89.7683 47.2585 89.675C47.1758 89.5843 47.1198 89.4777 47.0905 89.355L47.5305 89.327C47.5598 89.415 47.6105 89.4843 47.6825 89.535C47.7571 89.5883 47.8691 89.615 48.0185 89.615C48.1945 89.615 48.3291 89.5777 48.4225 89.503C48.5185 89.4283 48.5665 89.315 48.5665 89.163V88.855C48.5158 88.9643 48.4345 89.051 48.3225 89.115C48.2105 89.179 48.0851 89.211 47.9465 89.211C47.7678 89.211 47.6091 89.167 47.4705 89.079C47.3318 88.991 47.2238 88.8697 47.1465 88.715C47.0691 88.5603 47.0305 88.3817 47.0305 88.179C47.0305 87.9737 47.0678 87.7937 47.1425 87.639C47.2198 87.4843 47.3265 87.363 47.4625 87.275C47.6011 87.187 47.7571 87.143 47.9305 87.143C48.0825 87.143 48.2158 87.1777 48.3305 87.247C48.4478 87.3163 48.5318 87.4097 48.5825 87.527V87.191H48.9905V89.151C48.9905 89.327 48.9505 89.475 48.8705 89.595C48.7931 89.7177 48.6811 89.8097 48.5345 89.871C48.3905 89.935 48.2185 89.967 48.0185 89.967ZM48.0145 88.851C48.1798 88.851 48.3118 88.791 48.4105 88.671C48.5118 88.551 48.5638 88.3857 48.5665 88.175C48.5691 88.0363 48.5478 87.9177 48.5025 87.819C48.4571 87.7177 48.3918 87.6403 48.3065 87.587C48.2238 87.531 48.1265 87.503 48.0145 87.503C47.8411 87.503 47.7065 87.5643 47.6105 87.687C47.5171 87.807 47.4705 87.9697 47.4705 88.175C47.4705 88.383 47.5185 88.5483 47.6145 88.671C47.7131 88.791 47.8465 88.851 48.0145 88.851ZM49.4614 89.319V87.191H49.8854V89.319H49.4614ZM49.4534 86.883V86.459H49.8934V86.883H49.4534ZM51.0763 89.319C50.8736 89.319 50.7243 89.2723 50.6283 89.179C50.5323 89.0857 50.4843 88.9403 50.4843 88.743V86.691H50.9083V88.711C50.9083 88.8097 50.9296 88.8777 50.9723 88.915C51.015 88.9523 51.0803 88.971 51.1683 88.971H51.4723V89.319H51.0763ZM50.1603 87.539V87.191H51.4723V87.539H50.1603ZM52.3818 89.367C52.1604 89.367 51.9831 89.3163 51.8498 89.215C51.7191 89.1137 51.6538 88.971 51.6538 88.787C51.6538 88.603 51.7084 88.4603 51.8178 88.359C51.9298 88.255 52.1018 88.1803 52.3338 88.135L53.0658 87.995C53.0658 87.8297 53.0271 87.707 52.9498 87.627C52.8724 87.5443 52.7578 87.503 52.6058 87.503C52.4698 87.503 52.3631 87.5337 52.2858 87.595C52.2084 87.6537 52.1551 87.7417 52.1258 87.859L51.6898 87.831C51.7298 87.6177 51.8284 87.4497 51.9858 87.327C52.1458 87.2043 52.3524 87.143 52.6058 87.143C52.8938 87.143 53.1124 87.2203 53.2618 87.375C53.4138 87.527 53.4898 87.7417 53.4898 88.019V88.847C53.4898 88.8977 53.4978 88.9337 53.5138 88.955C53.5324 88.9737 53.5618 88.983 53.6018 88.983H53.6778V89.319C53.6644 89.3217 53.6431 89.3243 53.6138 89.327C53.5844 89.3297 53.5538 89.331 53.5218 89.331C53.4311 89.331 53.3524 89.3163 53.2858 89.287C53.2218 89.2577 53.1738 89.2097 53.1418 89.143C53.1098 89.0737 53.0938 88.9817 53.0938 88.867L53.1378 88.887C53.1164 88.9803 53.0698 89.063 52.9978 89.135C52.9284 89.207 52.8391 89.2643 52.7298 89.307C52.6231 89.347 52.5071 89.367 52.3818 89.367ZM52.4498 89.031C52.5778 89.031 52.6871 89.007 52.7778 88.959C52.8684 88.9083 52.9391 88.839 52.9898 88.751C53.0404 88.663 53.0658 88.563 53.0658 88.451V88.315L52.4418 88.435C52.3138 88.459 52.2231 88.4977 52.1698 88.551C52.1191 88.6017 52.0938 88.667 52.0938 88.747C52.0938 88.8377 52.1244 88.9083 52.1858 88.959C52.2498 89.007 52.3378 89.031 52.4498 89.031ZM54.3924 89.319C54.2537 89.319 54.1417 89.283 54.0564 89.211C53.9711 89.139 53.9284 89.0243 53.9284 88.867V86.479H54.3524V88.827C54.3524 88.875 54.3644 88.911 54.3884 88.935C54.4151 88.959 54.4524 88.971 54.5004 88.971H54.6684V89.319H54.3924ZM56.49 89.319V86.875H55.618V86.479H57.794V86.875H56.922V89.319H56.49ZM57.872 89.319V87.191H58.26L58.276 87.755L58.24 87.743C58.2693 87.551 58.328 87.411 58.416 87.323C58.5067 87.235 58.628 87.191 58.78 87.191H58.984V87.571H58.78C58.6733 87.571 58.584 87.5883 58.512 87.623C58.44 87.6577 58.3853 87.711 58.348 87.783C58.3133 87.855 58.296 87.9483 58.296 88.063V89.319H57.872ZM59.8099 89.367C59.5885 89.367 59.4112 89.3163 59.2779 89.215C59.1472 89.1137 59.0819 88.971 59.0819 88.787C59.0819 88.603 59.1365 88.4603 59.2459 88.359C59.3579 88.255 59.5299 88.1803 59.7619 88.135L60.4939 87.995C60.4939 87.8297 60.4552 87.707 60.3779 87.627C60.3005 87.5443 60.1859 87.503 60.0339 87.503C59.8979 87.503 59.7912 87.5337 59.7139 87.595C59.6365 87.6537 59.5832 87.7417 59.5539 87.859L59.1179 87.831C59.1579 87.6177 59.2565 87.4497 59.4139 87.327C59.5739 87.2043 59.7805 87.143 60.0339 87.143C60.3219 87.143 60.5405 87.2203 60.6899 87.375C60.8419 87.527 60.9179 87.7417 60.9179 88.019V88.847C60.9179 88.8977 60.9259 88.9337 60.9419 88.955C60.9605 88.9737 60.9899 88.983 61.0299 88.983H61.1059V89.319C61.0925 89.3217 61.0712 89.3243 61.0419 89.327C61.0125 89.3297 60.9819 89.331 60.9499 89.331C60.8592 89.331 60.7805 89.3163 60.7139 89.287C60.6499 89.2577 60.6019 89.2097 60.5699 89.143C60.5379 89.0737 60.5219 88.9817 60.5219 88.867L60.5659 88.887C60.5445 88.9803 60.4979 89.063 60.4259 89.135C60.3565 89.207 60.2672 89.2643 60.1579 89.307C60.0512 89.347 59.9352 89.367 59.8099 89.367ZM59.8779 89.031C60.0059 89.031 60.1152 89.007 60.2059 88.959C60.2965 88.9083 60.3672 88.839 60.4179 88.751C60.4685 88.663 60.4939 88.563 60.4939 88.451V88.315L59.8699 88.435C59.7419 88.459 59.6512 88.4977 59.5979 88.551C59.5472 88.6017 59.5219 88.667 59.5219 88.747C59.5219 88.8377 59.5525 88.9083 59.6139 88.959C59.6779 89.007 59.7659 89.031 59.8779 89.031ZM61.3839 89.319V87.191H61.7719L61.7879 87.759L61.7359 87.731C61.7599 87.5923 61.8052 87.4803 61.8719 87.395C61.9385 87.3097 62.0199 87.247 62.1159 87.207C62.2119 87.1643 62.3159 87.143 62.4279 87.143C62.5879 87.143 62.7199 87.179 62.8239 87.251C62.9305 87.3203 63.0105 87.4163 63.0639 87.539C63.1199 87.659 63.1479 87.7963 63.1479 87.951V89.319H62.7239V88.079C62.7239 87.9537 62.7105 87.8483 62.6839 87.763C62.6572 87.6777 62.6132 87.6123 62.5519 87.567C62.4905 87.5217 62.4105 87.499 62.3119 87.499C62.1625 87.499 62.0412 87.5483 61.9479 87.647C61.8545 87.7457 61.8079 87.8897 61.8079 88.079V89.319H61.3839ZM64.4403 89.367C64.2403 89.367 64.071 89.3363 63.9323 89.275C63.7963 89.2137 63.691 89.1297 63.6163 89.023C63.5416 88.9137 63.499 88.7883 63.4883 88.647L63.9243 88.627C63.9456 88.7443 63.9963 88.8377 64.0763 88.907C64.1563 88.9763 64.2776 89.011 64.4403 89.011C64.5736 89.011 64.679 88.9897 64.7563 88.947C64.8336 88.9043 64.8723 88.8363 64.8723 88.743C64.8723 88.6923 64.859 88.6497 64.8323 88.615C64.8083 88.5777 64.7603 88.547 64.6883 88.523C64.6163 88.4963 64.5096 88.471 64.3683 88.447C64.1576 88.407 63.9923 88.3603 63.8723 88.307C63.7523 88.2537 63.667 88.1857 63.6163 88.103C63.5656 88.0203 63.5403 87.9203 63.5403 87.803C63.5403 87.6083 63.6123 87.4497 63.7563 87.327C63.903 87.2043 64.1136 87.143 64.3883 87.143C64.5723 87.143 64.727 87.175 64.8523 87.239C64.9776 87.3003 65.075 87.3843 65.1443 87.491C65.2163 87.595 65.2616 87.7123 65.2803 87.843L64.8443 87.867C64.831 87.7923 64.8043 87.7283 64.7643 87.675C64.727 87.619 64.6763 87.5763 64.6123 87.547C64.5483 87.515 64.4723 87.499 64.3843 87.499C64.2483 87.499 64.147 87.5257 64.0803 87.579C64.0136 87.6323 63.9803 87.7017 63.9803 87.787C63.9803 87.851 63.995 87.903 64.0243 87.943C64.0563 87.983 64.107 88.0163 64.1763 88.043C64.2456 88.067 64.3376 88.0883 64.4523 88.107C64.6736 88.1443 64.847 88.191 64.9723 88.247C65.0976 88.3003 65.1856 88.367 65.2363 88.447C65.287 88.527 65.3123 88.6243 65.3123 88.739C65.3123 88.8723 65.275 88.9857 65.2003 89.079C65.1256 89.1723 65.023 89.2443 64.8923 89.295C64.7616 89.343 64.611 89.367 64.4403 89.367ZM65.7954 89.319V87.055C65.7954 86.879 65.8447 86.739 65.9434 86.635C66.042 86.531 66.1967 86.479 66.4074 86.479H66.7834V86.827H66.4634C66.3807 86.827 66.3194 86.8497 66.2794 86.895C66.2394 86.9377 66.2194 86.999 66.2194 87.079V89.319H65.7954ZM65.4994 87.563V87.219H66.7514V87.563H65.4994ZM67.8558 89.367C67.6532 89.367 67.4758 89.3217 67.3238 89.231C67.1718 89.1403 67.0545 89.011 66.9718 88.843C66.8892 88.675 66.8478 88.479 66.8478 88.255C66.8478 88.0283 66.8892 87.8323 66.9718 87.667C67.0545 87.5017 67.1718 87.3737 67.3238 87.283C67.4758 87.1897 67.6532 87.143 67.8558 87.143C68.0585 87.143 68.2358 87.1897 68.3878 87.283C68.5398 87.3737 68.6572 87.5017 68.7398 87.667C68.8225 87.8323 68.8638 88.0283 68.8638 88.255C68.8638 88.479 68.8225 88.675 68.7398 88.843C68.6572 89.011 68.5398 89.1403 68.3878 89.231C68.2358 89.3217 68.0585 89.367 67.8558 89.367ZM67.8558 88.999C68.0372 88.999 68.1772 88.9337 68.2758 88.803C68.3745 88.6697 68.4238 88.487 68.4238 88.255C68.4238 88.023 68.3745 87.8417 68.2758 87.711C68.1772 87.5777 68.0372 87.511 67.8558 87.511C67.6772 87.511 67.5372 87.5777 67.4358 87.711C67.3372 87.8417 67.2878 88.023 67.2878 88.255C67.2878 88.487 67.3372 88.6697 67.4358 88.803C67.5372 88.9337 67.6772 88.999 67.8558 88.999ZM69.2123 89.319V87.191H69.6003L69.6163 87.755L69.5803 87.743C69.6097 87.551 69.6683 87.411 69.7563 87.323C69.847 87.235 69.9683 87.191 70.1203 87.191H70.3243V87.571H70.1203C70.0137 87.571 69.9243 87.5883 69.8523 87.623C69.7803 87.6577 69.7257 87.711 69.6883 87.783C69.6537 87.855 69.6363 87.9483 69.6363 88.063V89.319H69.2123ZM70.562 89.319V87.191H70.95L70.962 87.719L70.914 87.703C70.938 87.5857 70.9793 87.4857 71.038 87.403C71.0993 87.3203 71.174 87.2563 71.262 87.211C71.35 87.1657 71.446 87.143 71.55 87.143C71.7313 87.143 71.8793 87.195 71.994 87.299C72.1087 87.4003 72.1807 87.5403 72.21 87.719H72.142C72.166 87.5937 72.206 87.4897 72.262 87.407C72.3207 87.3217 72.3953 87.2563 72.486 87.211C72.5767 87.1657 72.6793 87.143 72.794 87.143C72.9433 87.143 73.07 87.175 73.174 87.239C73.2807 87.3003 73.3607 87.391 73.414 87.511C73.47 87.631 73.498 87.7777 73.498 87.951V89.319H73.074V88.055C73.074 87.871 73.0407 87.7323 72.974 87.639C72.9073 87.5457 72.806 87.499 72.67 87.499C72.582 87.499 72.5047 87.5217 72.438 87.567C72.3713 87.6123 72.3193 87.6777 72.282 87.763C72.2473 87.8483 72.23 87.951 72.23 88.071V89.319H71.826V88.071C71.826 87.8897 71.7953 87.7497 71.734 87.651C71.6753 87.5497 71.574 87.499 71.43 87.499C71.3393 87.499 71.2607 87.5217 71.194 87.567C71.13 87.6123 71.0793 87.679 71.042 87.767C71.0047 87.8523 70.986 87.9537 70.986 88.071V89.319H70.562ZM74.5741 89.367C74.3528 89.367 74.1754 89.3163 74.0421 89.215C73.9114 89.1137 73.8461 88.971 73.8461 88.787C73.8461 88.603 73.9008 88.4603 74.0101 88.359C74.1221 88.255 74.2941 88.1803 74.5261 88.135L75.2581 87.995C75.2581 87.8297 75.2194 87.707 75.1421 87.627C75.0648 87.5443 74.9501 87.503 74.7981 87.503C74.6621 87.503 74.5554 87.5337 74.4781 87.595C74.4008 87.6537 74.3474 87.7417 74.3181 87.859L73.8821 87.831C73.9221 87.6177 74.0208 87.4497 74.1781 87.327C74.3381 87.2043 74.5448 87.143 74.7981 87.143C75.0861 87.143 75.3048 87.2203 75.4541 87.375C75.6061 87.527 75.6821 87.7417 75.6821 88.019V88.847C75.6821 88.8977 75.6901 88.9337 75.7061 88.955C75.7248 88.9737 75.7541 88.983 75.7941 88.983H75.8701V89.319C75.8568 89.3217 75.8354 89.3243 75.8061 89.327C75.7768 89.3297 75.7461 89.331 75.7141 89.331C75.6234 89.331 75.5448 89.3163 75.4781 89.287C75.4141 89.2577 75.3661 89.2097 75.3341 89.143C75.3021 89.0737 75.2861 88.9817 75.2861 88.867L75.3301 88.887C75.3088 88.9803 75.2621 89.063 75.1901 89.135C75.1208 89.207 75.0314 89.2643 74.9221 89.307C74.8154 89.347 74.6994 89.367 74.5741 89.367ZM74.6421 89.031C74.7701 89.031 74.8794 89.007 74.9701 88.959C75.0608 88.9083 75.1314 88.839 75.1821 88.751C75.2328 88.663 75.2581 88.563 75.2581 88.451V88.315L74.6341 88.435C74.5061 88.459 74.4154 88.4977 74.3621 88.551C74.3114 88.6017 74.2861 88.667 74.2861 88.747C74.2861 88.8377 74.3168 88.9083 74.3781 88.959C74.4421 89.007 74.5301 89.031 74.6421 89.031ZM76.8547 89.319C76.6521 89.319 76.5027 89.2723 76.4067 89.179C76.3107 89.0857 76.2627 88.9403 76.2627 88.743V86.691H76.6867V88.711C76.6867 88.8097 76.7081 88.8777 76.7507 88.915C76.7934 88.9523 76.8587 88.971 76.9467 88.971H77.2507V89.319H76.8547ZM75.9387 87.539V87.191H77.2507V87.539H75.9387ZM77.5759 89.319V87.191H77.9999V89.319H77.5759ZM77.5679 86.883V86.459H78.0079V86.883H77.5679ZM79.3563 89.367C79.1536 89.367 78.9763 89.3217 78.8243 89.231C78.6723 89.1403 78.555 89.011 78.4723 88.843C78.3896 88.675 78.3483 88.479 78.3483 88.255C78.3483 88.0283 78.3896 87.8323 78.4723 87.667C78.555 87.5017 78.6723 87.3737 78.8243 87.283C78.9763 87.1897 79.1536 87.143 79.3563 87.143C79.559 87.143 79.7363 87.1897 79.8883 87.283C80.0403 87.3737 80.1576 87.5017 80.2403 87.667C80.323 87.8323 80.3643 88.0283 80.3643 88.255C80.3643 88.479 80.323 88.675 80.2403 88.843C80.1576 89.011 80.0403 89.1403 79.8883 89.231C79.7363 89.3217 79.559 89.367 79.3563 89.367ZM79.3563 88.999C79.5376 88.999 79.6776 88.9337 79.7763 88.803C79.875 88.6697 79.9243 88.487 79.9243 88.255C79.9243 88.023 79.875 87.8417 79.7763 87.711C79.6776 87.5777 79.5376 87.511 79.3563 87.511C79.1776 87.511 79.0376 87.5777 78.9363 87.711C78.8376 87.8417 78.7883 88.023 78.7883 88.255C78.7883 88.487 78.8376 88.6697 78.9363 88.803C79.0376 88.9337 79.1776 88.999 79.3563 88.999ZM80.7128 89.319V87.191H81.1008L81.1168 87.759L81.0648 87.731C81.0888 87.5923 81.1341 87.4803 81.2008 87.395C81.2675 87.3097 81.3488 87.247 81.4448 87.207C81.5408 87.1643 81.6448 87.143 81.7568 87.143C81.9168 87.143 82.0488 87.179 82.1528 87.251C82.2595 87.3203 82.3395 87.4163 82.3928 87.539C82.4488 87.659 82.4768 87.7963 82.4768 87.951V89.319H82.0528V88.079C82.0528 87.9537 82.0395 87.8483 82.0128 87.763C81.9861 87.6777 81.9421 87.6123 81.8808 87.567C81.8195 87.5217 81.7395 87.499 81.6408 87.499C81.4915 87.499 81.3701 87.5483 81.2768 87.647C81.1835 87.7457 81.1368 87.8897 81.1368 88.079V89.319H80.7128Z" fill="black"/>
</svg>
